/* XPM */
static char *result[] = {
/* columns rows colors chars-per-pixel */
"64 64 247 2 ",
"   c #020101",
".  c #060809",
"X  c #0C0C0C",
"o  c #120506",
"O  c #0D0F12",
"+  c #160E10",
"@  c #0F1011",
"#  c #0B121A",
"$  c #131313",
"%  c #151619",
"&  c #1B1C1C",
"*  c #330E12",
"=  c #271619",
"-  c #0E1425",
";  c #151824",
":  c #1D1E21",
">  c #1A1C38",
",  c #1E2124",
"<  c #1C233A",
"1  c #232424",
"2  c #2E2C23",
"3  c #242629",
"4  c #26292A",
"5  c #2B2B2C",
"6  c #33282D",
"7  c #2C2E31",
"8  c #23273A",
"9  c #2F3134",
"0  c #2C353B",
"q  c #333333",
"w  c #33353A",
"e  c #35393C",
"r  c #3B3B3C",
"t  c #4B161A",
"y  c #463E1B",
"u  c #571A26",
"i  c #731C33",
"p  c #492A31",
"a  c #63263A",
"s  c #4D441D",
"d  c #4D4528",
"f  c #796232",
"g  c #1E2546",
"h  c #1E2650",
"j  c #252B48",
"k  c #2B314B",
"l  c #3B3D42",
"z  c #37394A",
"x  c #242C54",
"c  c #272C56",
"v  c #2B3359",
"b  c #373B54",
"n  c #1F3369",
"m  c #2F2F62",
"M  c #243464",
"N  c #2A3565",
"B  c #273669",
"V  c #2B376A",
"C  c #25386C",
"Z  c #2C396C",
"A  c #3D3365",
"S  c #343868",
"D  c #323C6D",
"F  c #2C3C71",
"G  c #343E71",
"H  c #751C40",
"J  c #562B5C",
"K  c #4D3652",
"L  c #6C304E",
"P  c #682A5B",
"I  c #772858",
"U  c #562E61",
"Y  c #493265",
"T  c #4C3467",
"R  c #563666",
"E  c #703466",
"W  c #3E4245",
"Q  c #3E4349",
"!  c #394159",
"~  c #3B436A",
"^  c #2B447C",
"/  c #364273",
"(  c #3B4475",
")  c #3D4878",
"_  c #434343",
"`  c #42454A",
"'  c #46494E",
"]  c #4B4B4C",
"[  c #464C53",
"{  c #4A4E53",
"}  c #484959",
"|  c #4C5155",
" . c #4E545A",
".. c #535353",
"X. c #52565D",
"o. c #53595D",
"O. c #5B5B5C",
"+. c #706850",
"@. c #434767",
"#. c #56496E",
"$. c #565A65",
"%. c #5A5D62",
"&. c #444976",
"*. c #434B7B",
"=. c #4A547B",
"-. c #555878",
";. c #6D4F6C",
":. c #5C6165",
">. c #5E646B",
",. c #5E6177",
"<. c #636464",
"1. c #6B6365",
"2. c #62676C",
"3. c #64696D",
"4. c #6A6A6B",
"5. c #676D75",
"6. c #6A6D74",
"7. c #66677A",
"8. c #6D7174",
"9. c #747474",
"0. c #777877",
"q. c #71767E",
"w. c #7A7B7B",
"e. c #80132C",
"r. c #861D3B",
"t. c #8E2735",
"y. c #AD3038",
"u. c #DE0A3B",
"i. c #C7383B",
"p. c #984F38",
"a. c #881C4D",
"s. c #AD1D4D",
"d. c #B81948",
"f. c #BD1B4A",
"g. c #8B2353",
"h. c #942950",
"j. c #B32C52",
"k. c #913466",
"l. c #AB3D6D",
"z. c #CA1A47",
"x. c #C31A4A",
"c. c #C91949",
"v. c #DB1947",
"b. c #E41745",
"n. c #D22B4C",
"m. c #E52A50",
"M. c #CE3963",
"N. c #E03C63",
"B. c #8D4F4C",
"V. c #B45154",
"C. c #9E6D5B",
"Z. c #8C4974",
"A. c #DA575A",
"S. c #EC4E4D",
"D. c #D4456D",
"F. c #ED5477",
"G. c #6E8B56",
"H. c #B8AB31",
"J. c #C5AC38",
"K. c #EAB328",
"L. c #C1C02A",
"P. c #949561",
"I. c #B0AA6E",
"U. c #D0B24C",
"Y. c #DDA366",
"T. c #E9D065",
"R. c #2B4B86",
"E. c #32518A",
"W. c #3F609B",
"Q. c #3767A7",
"!. c #3C73B7",
"~. c #3E74B8",
"^. c #474E85",
"/. c #4B5483",
"(. c #4A5988",
"). c #525785",
"_. c #555C84",
"`. c #545A89",
"'. c #5A5E8C",
"]. c #555792",
"[. c #665788",
"{. c #6D5694",
"}. c #755695",
"|. c #576086",
" X c #596186",
".X c #5D628B",
"XX c #4B6699",
"oX c #5A6794",
"OX c #676A8A",
"+X c #75688E",
"@X c #767789",
"#X c #676995",
"$X c #6A6E94",
"%X c #6C7398",
"&X c #767899",
"*X c #4972AE",
"=X c #6C7CA5",
"-X c #787AA4",
";X c #874C85",
":X c #A45782",
">X c #857091",
",X c #817CA4",
"<X c #DC7393",
"1X c #7E8185",
"2X c #7E8097",
"3X c #5A88BC",
"4X c #7287AE",
"5X c #5C8EC6",
"6X c #6694C5",
"7X c #848587",
"8X c #82888B",
"9X c #878997",
"0X c #968E93",
"qX c #8689A5",
"wX c #8386AC",
"eX c #958AAA",
"rX c #9698A8",
"tX c #898CB4",
"yX c #8E90B4",
"uX c #9597B6",
"iX c #B396A7",
"pX c #9FA2A5",
"aX c #9EA1B8",
"sX c #A3A5A8",
"dX c #ADAEB1",
"fX c #A4A8BA",
"gX c #B7AABE",
"hX c #B4B5B7",
"jX c #B5B7B8",
"kX c #E89797",
"lX c #D593AD",
"zX c #D2A7AE",
"xX c #ECD99C",
"cX c #9A9CC2",
"vX c #9EA4C6",
"bX c #A7A9C8",
"nX c #ACB2CA",
"mX c #B7BAC8",
"MX c #AEAED0",
"NX c #B6B8D6",
"BX c #C9B2CB",
"VX c #E0B2C4",
"CX c #BBC1CF",
"ZX c #BAC7E6",
"AX c #C8C6D3",
"SX c #D6D8E7",
"DX c #E5DEE8",
/* pixels */
"<...] ] | ..] ..] O._ ....1 , 5 $ & q $ @ ..e q O.O.0.] o.%.0.$. .K  .<.l ` ..q O.1 1 5 e $ 5 $ 1 1 X 1 _ q r & d ' o.` O.G.@.7 ",
"..o.w.8X$.[ | | ' | o.5.{ 4 X 2 $ , ] 5 @ & % _ _ r r <.2XC.:.G.w.O.l d ..r 0 p & ] 2 @ & 1 & 5 1 e & q & & $ ] 9.3 :.d ] :.@X8.",
"4.o.8XjX2.[ [ | { X.5.q.' 1 q ' + _ 1 2 X X $ W ..0.r ] ] O.0.O.G.O.9.0.O.O.O._ e r & 1 @ : r & % 3 1 1 q q 1 ..{ r 5 9 r  .sXhX",
"4.X.8XjX2.[ [ [ [ X.5.@X:.$ % X : % 1 1 1 r q d q q r w.9.4.w...@X>XO.] d & 4 ] 0 p q 4 2 + $ 5 % 4 , d q 1 ] ] 3 .._ K ] ..pXdX",
"..o.8XjX2.[ [ | [ o.5.q.| 1 ] X & X X 2 & q 1 ] r O.1 0.<.<.9.1.0.0.q O. ...<.<.& 4.5 r 5 % 1 + X . 3 1 q X 1 ..4 ..] <.` $.sXdX",
"r { 8XjX>.[ [ [ [ o.5.q.| 1 $ ] $ $ q $ @ { p r r 5 q <.9.r O.<..._ ..1.o.9 ] 1 : 5 5 5 r @ & 5 8 d 1 _   & 5 $ r <.] r ..X.pXdX",
"O. .8XjX2.[ [ [ [ o.5.q.X.1 $ 2 ] q 1 1 e @ 1 4 5 ] _ l 4.` 3.O.7X..] 6.4.q 8.<.r 4 w d 1 5 X 3 O 1 % q 5 + X q _ q q _ r  .pXdX",
"_ ' 8XjX2.[ [ [ [ X.5.q.O.& q 5 r @ @ @ q & $ q ] @X2X&.k k @.uXnXbXNXfXnXnXuX>.. . O X   .     X   X X X X . $   & . @ & | sXdX",
">.:.8XjX2.[ | [ [ $.5.@X ., 1 q $ $ & d O { : $ 9 P.I.~ x &.&XvXbXuXtXtXtXyXyX+X} $.7                                   O { sXdX",
"4.$.8XjX2.[ [ [ !  .5.q.' ....@ . 1 q 1 % l 3 q e L.L.! x $XBXbXeX-X#X).=.*.'.%XtXMX7.; 3 O                             @ { sXdX",
"..%.1XjX2.[ [ [ | o.5.q.| e & 2 & 7 1 q $ % q ..$XU.L.! h +XSXAXmXAXmX&X) D G G ) `.$XwXaXl                             @ [ sXdX",
"O.:.2.:.l Q o.5.>.| Q  .q $ % & $ 2 X X q 4 q q O.G.f } z $XmX4XOX%X$X=./.9XyXrXqX*.*.#XuXOX7.OX:                       @ ' 8.3.",
"] 8...4 & 5 Q :.:.| 3 9 1 & 1 q $ 5 X @ % ] 1 ] r q r ] { @XbX(.^ ^ R.^ XXnXnXdXrX) )  X X&XcXMX$.3 &                   @ ' l 3 ",
"8.r :.O.: # $ % e ..7 ` e $ X $ & % 1 & X 2 q ] <.O.] <.O.rXZX5X!.*X!.!.~.*XE.^ / F qXuX( *.$XuXMXuX-.&                 $ e e $ ",
".._ , ..d , @ 1 r O., X & & 1 X . X 1 1 + : q q 1 ] & <.6 rXNXoXR.R.R.R.E.R.R.R.Q.!.*XXXD 4XrX#X,XyXyXqXW               X q e | ",
"r q ] 4.O.q @ : r O., 9 d @ ..& + $ $ X X ] 4 . r ] ..<.' 9XNX;.P I I I P I E Z.}.XXR.^ E.4XtX*.#X-XyXNX&Xl &           X 4 0 _ ",
"O...` <.: 1 @ % & e d : % X & = , 1 1 1 p ] & W ] 5 _ O.O.rXgXl.d.c.c.c.c.c.c.c.f.U A *.*X*XW.R.$X&X%XwXbXuX` & .     . $ 3 $ X ",
"<.$ & o.q 1 & ] 5 & { 7 5 5 & .   r 2 1 % @ r 7 q K z { 1.0XkXZ.J J Y Y J Y U Y U s.x.x.x.R R.Q.) %XaX#X%X%XX.X.l @ % O   . % & ",
"O...1 9 r : 1 4.r e r r ] 4 4 4 % q . X @ , d 8 8 k } 9X>X>XZ.@.m M B C M C B C A I g.g.g.U R k.T XX4XE.*.&.l  . .r %   X w 7 & ",
"..<.d l 1 & & r e r _ $ q , 2 4 @ X & . $ : 3 W @. .@XbXuX.X/ M V S D C V B V V V V V V V G I s.U E.oX/ C c 3 5 W [ : $ 5 o.q X ",
"q <.] <.% % q O.q & 1 5 : % = q + 6 r   9 d Q $.2XyX-X`.*.D V Z G G &.G G F Z F V V V V V Z A A V I s.T C c % @ $ : W >.5.4 X   ",
"r O.8.O.& 1 ` ] X @ & $ $ _ r % X w % w $ O.q.@X$X'./.( Z *..X/.&.D G ^.#XtX#X).^.V V V V V C C C T P S C x O X % 3 w W ` ' :   ",
"..4...<.& 9 :.W 5 @ & 5 5 & r 1 $ r w $. .7.2X=X*.Z B B G #XwX#XD c m @.$XuXwX-X-X^.Z V N V V V V Z C V F x O X % 4 3 % , X.l : ",
"4.4.4.' % Q d O.5 : ' _ r r 3 4 . 2 9XcX#X( Z F N N N S ~ $XuX).c > > j N G .XyXMX,X^.V N B V V V V V V F x % X @ @ $ $ , w | X.",
"4.2 <.] = 1 ' 9 W ` W 4 X.rX&X_.K p.1.).( D V B j 8 z 1.z 7.cX'.c > > > c m G ].2XvXtX/.V V B B B B V V V N x % X @ @ @ $ % 4 e ",
"9X8X@X@Xk z z 8 8 b ! < ~ =X=X(.#.y.P M N V v j ; % 6 V.y w -.b > - - g m M h < [ CXNX=X(.*.^.^.*.*.^.) Z B N < % @ @ @ X X @ : ",
"bXuX-X'.*.( D / D S A Y Y Y #.T E i.P D V V j : O . t y.u + = = * = = z ~ Y : . 2 AXSXeX>X,X,X>X,X,X+X[.#.*.D c < $ @ X @ X X @ ",
") *.( / ( *.'..X#.I d.f.x.x.f.x.z.b.h.J A Z k & .   * t.i i i y.i.y.t.B.C.J.y   2 kXkXm.n.lXlXM.VXlXM.x.<XiX).G v x % X X X @ X ",
"qX=.M M B / *.(./.[.;XZ.;X;X;X;Xl.n.E T / C j 3 l # = Z.B.r.r.m.S.i.t.C.U.U.s X 5 P.Y.S.b.F.<Xb.<XF.b.b.<XBX}.].^.G j < 8 g % X ",
"AX$X/ ~ ) =.=.(.oX*X3X3X5X5X5X5X2XS.C.=.^ F k e 5.p y 8.L i i y.i.t.u p.U.U.s @ 4 $.0XT.S.m.b.b.m.N.M.N.lXAXuX-X#X/.) G D Z < ; ",
"8X%X|.|.qXuXaXaXnXnXmXCXmXNXCXmXjXK.J.C.&.Z !  .2.V.y.= 9 1 o o o o o s H.U.s O 7 $.I.T.T.xXY.m.<XbX,XgXNXSXDXuX#X#X#X).( Z N M ",
"9X4X*X3X3X5X5X6X6X6X6X3X4X4X4X3XC.J.B.#.~ Z v r >.V.j.u a a t o     o s P.I.d O 9 3.U.xXxXY.D.v.D.N.:XBXSXSXMX,X$X$X).) G V Z Z ",
"&X#XoX}.}.}.}.{.}.}.}.].^.R.R.R.@.n.L n N Z j 7 >.B.t.i r.h.t.u t t * f J.Y.d O , W C.Y.VXF.v.b.u.u.b.<XBXbX-X#X[.).( c v |.~ g ",
"Y P h.f.c.c.x.d.x.c.x.s.E A V C R n.P n Z Z j 7 $.5 * r.i L B.V.i.i.t.p.J.U.y O + $ t.N.b.u.b.b.v.c.v.n.:X-X#X=.G V N > 5 0X] X ",
"Z A Y R U U U K U U U ;.[.[.)./ K n.a g N V j & : . * y.u + = * t * + K ;.X., X X X e.b.u.b.b.N.:X>X;X;X+X`.) G v 7 ; @ $ q , X ",
"~ b @.~ j v =.-.#X=X=X#X#X`.=./ K i.a h S &.OX0., . t t.t @ ; # X O @ k ( V < + X   L l.j.h.k.Z.[.`.(.XX/.) Z h 8 & $ X X . X @ ",
"' & r 4.& & 4.0.aXnXbX&X=.S N Z ;.A.O.Z Z =.aXCXQ , 6 H p Q $.b 8 > < x N N j 3 & & } '.&.G G G G D Z V V B c ; $ 3 $ @ X @ $ : ",
"7 O.] q $ 1 4.4 $.3.1.[ w 3 e ' w.gX&X( Z F ) *.N v v S A #XtX/.c > > > x N j ] 7.#.~ G D Z D Z V V V V Z c - O r 3.5 X @ 1 9 ' ",
"O.& ` ..& r ] ] q 4 5 q ' r 4 ..O.$.b z ,.&X.XD N B C C ( -XcX`.c > g x V ).&X9X&X-.G V V V Z V V V V B P H + . 5 o.W 3 % l o.o.",
"d q ] <.$ 4 O.7 3 X + : 8 d 6 1 . & q 4 O.9XOX&.`.*.Z V D .XwX'.T b ~ ( ).-XuXtX`.&.D V V Z V V C V Z S g.r.+ O & 0 | w , W | l ",
"w ' 0.r = 3 W ] & @ $ e $ 5 3 r r 5 $ q 6 5 r o.vX-X*.G D ( /.#X#X#X#X$X%XOX*.G D Z V V V V V C S Z V Z D k % X & w W 0 & % @ . ",
":.r O._ : % 1 7 : 4 r q _ r r 2 1 % 1 q ] ] 5 _ l 7.qX4X`.D D ) ^.) ( &.&.S S N B V V V C B S U h.I V G F c : % 5 { :.0 X @ . . ",
"_ _ _ ] q % % ] 3 5 ..q 2 5 ] 4 1 X 1 $ 0 d <.1 w :.8XqXeX7.( Z M M M v M M M M C C C A E I P T k.E V F G S 9 0 W  .o.7   X X . ",
"5 4.4.4.] 4 & O.& & ] & e @ 1 ] 1 $ ] 1 [ X q r p 5 { _ iXzX&XT A A A A A A A Y A Y Z U f.c.h.F *XW.S ( *.=.Q ` Q Q e :     X X ",
"0  .<.q O.r $ $ @ & q 0.e 1 3 ; $ 1 X _ q q + % ..W e O.+.0XlXM.d.d.f.f.f.f.f.f.f.f.g.J U ].]./ =X%X^.'.&X2X>.7 X % 0 9 &     . ",
"q d 0.r O.7 @ $ 1 e q <.4.q q d + $ 1 4 w 5 5 w .., O.$.O.0XzXZ.a.a.g.g.g.g.g.g.k.k.}.^.F R.XX%X+X$X-XcXMXyXz @     & & $ X : 0 ",
"4._ 9...] 2 @ $ e ] 5 1 3 1 q q q 1 1 ] + 5 q _ p 5 { b %.rXNXXXF ^ ^ R.^ ^ ^ ^ R.W.!.*X(.G _.aX&X-XcXuXuX@XX             & e ] ",
"O...] W 3 $ @ @ q e + 4 r 1 ] X . 1 5 1 5 q 1 <.` ..r O.<.9XZX5X!.!.!.!.*X!.!.!.Q.R.G oXbXOX^.&XtXMXfXw $ O             $ r 5 % ",
"w.O...O., % % & ] ....>...5 q 4 . 4 e % 3 r r q ..1 ..O.z &XMXXXR.E.E.E.E.R.R.=XvXrX X*.&X#X-XbXbX&X_ X                 $ 9.W $ ",
"e r <.9.l 5 5 9 _ o.%.5.| 1 X 1 # d q @ 5 r % r } z } | j OXNX&X|..X X.XoX|./ |.aXaX$X) oXtXuXqX&Xz                     % 2.2.] ",
"<.| 8XdX>.Q [ ! ' o.5.%X] 1 r r + $ X $ $ & & r -.=.S k j $XSXAXmXCXmXmXmXhX_.Z / ) `.&XwXMX@X$ .                       @ [ pXsX",
"..:.8XjX5.Q | | [ o.5.G.O.1 4 1 1 1 6 X . $ q O.@XG.G.v h OXAXyX$X|.|.|.|.|.( ( ).=XcXeXz w 3                           @ { dXdX",
"W | 8XjX5.[ [ | [ X.5.q.X.$ 1 3 q r . 4 d r = <.4.G.4.v x OXNXuX2XoXoX`._.`.%XwXqX7.7.$.X                               @ [ sXdX",
":.:.8XjX5.Q | [ [  .5.@X4.$ 7 $ 4 5   $ O q 0 & O.@.@.S x OXNXNXNXnXuXwXtXyXbXNXuX4 X     X   X X     .     . .   X X X & | sXdX",
"4.o.1XjX>.Q  .[ [ o.8.q.:.& @ 5 q 2 3 q 7 , 4.] ] ] { 6.%.8.7X0XG.7X6.o.w.4.5. .{ w q & 5 ] @ $ % 3 r 7 % + , & 1 4 _ ] :.o.pXdX",
"0X..8XjX3.[ [ [ [  .5.q...X ] q 4 3 % _ . W l ] { ] _ ..0...0.8.2.>X_ O.r 8.] p ] q r O.q & & 5 X q q = & @ 5 X q ..<.8.] o.pXdX",
"0.>.8XjX5.[ [ [ [ o.5.q.:., ] 9 4 1 X & : 1 r ] X. .] <.:.r 8.p 8.O...r 4.O.O.q 0.q _ 5 _ : q r & $ 1 $ $ 4 , [ ..4 5 ] :. .pXdX",
"G. .8XjX>.Q | [ ! $.5.q.>.w 9 q 1 q & 2 O.. 8 d q d ..<.] <.4...0.4.7X] ] ....] 3 2.O O.& 1 5 5 5 1 1 7 5 { 5 d r _ 2 <.] o.pXdX",
"7.X.8XjX>.[ [ | | o.5.@XO.q & 1 X _ 1 2 O.& 1 e w K q q ] d 6.7Xw.w.K .._ O.d 8.d >.1 $ = $ $ O.@ & 4 1 @ 4 & q d { K ..O.o.sXhX",
"O.2.q.1X:. .| W W Q o.>.] & @ q : X r . & 2 1 5 <...5 W | @Xw.:.1...] <...O.%.w 2 1 1 q 7 : $ & r 5 9 p ] 4 q ..$.X.r ] ]  .1X7X",
"..0.o.9 { %.| 7 4 3 5 e r e 2 & 2 7 % 1 , 2 9 r q & <.r _ 4.9.G.O.O.0.9.W q q <.5 <.q $ 1 $ 5 l 5 1 & q & & X % q ..] r ..| ` e ",
"%.>X9.| <.] _ w r q 0 4 & , & & 1 X @ r $ q q r ..O.O.r ] 4.>X0XP.O.r ] O.O.1.r r 1 q 1 & & 1 X & q 2 & 2 @ 1 q 9 r q ..] 8...:.",
"9.O.4...O.] ..7 5 ] 3 5 q & @ _ & $ % 1 q X q r q $ 2 :._ O.O.` } %.r O.] O.: ] r 5 5 $ X 1 4 1 r 1 % 1 : % 9 d q ] ..& <.r .._ ",
"4.<...9.r ] <.5 : ..0 d q & $ & % 1 X 5 & 2 & r r <.] r q w.1.7X0.:.<...] r 9.4.5 5 & r & & 8 d X q 5 1 . , 9 & @ & 5 _ O......."
};
