/* XPM */
static char *result[] = {
/* columns rows colors chars-per-pixel */
"64 64 203 2 ",
"   c #060606",
".  c #0C0C0C",
"X  c #141414",
"o  c #1C1C1C",
"O  c #271D18",
"+  c #302917",
"@  c #352A1B",
"#  c #331E21",
"$  c #242424",
"%  c #292723",
"&  c #2B2B2B",
"*  c #372C2B",
"=  c #383227",
"-  c #333333",
";  c #383535",
":  c #3C3C3C",
">  c #641D27",
",  c #45392B",
"<  c #443B2A",
"1  c #463A39",
"2  c #503C3F",
"3  c #66232D",
"4  c #73242F",
"5  c #6C2932",
"6  c #762A35",
"7  c #732C36",
"8  c #77323C",
"9  c #634F1F",
"0  c #51462B",
"q  c #4A4235",
"w  c #534A3A",
"e  c #6F532F",
"r  c #6C563C",
"t  c #6D583E",
"y  c #73623A",
"u  c #513E41",
"i  c #793741",
"p  c #7C3A43",
"a  c #3F4040",
"s  c #434344",
"d  c #484746",
"f  c #4B4B4B",
"g  c #584648",
"h  c #56544D",
"j  c #535353",
"k  c #595856",
"l  c #57585B",
"z  c #5B5B5B",
"x  c #655B4C",
"c  c #695E4B",
"v  c #614E51",
"b  c #695557",
"n  c #6C585B",
"m  c #77654D",
"M  c #6D6353",
"N  c #736959",
"B  c #745F62",
"V  c #5E6061",
"C  c #636363",
"Z  c #666769",
"A  c #6B6B6B",
"S  c #736C69",
"D  c #737373",
"F  c #737D7E",
"G  c #7B7B7B",
"H  c #812D39",
"J  c #87333E",
"K  c #8A5B20",
"L  c #8C6739",
"P  c #8D6A3A",
"I  c #947833",
"U  c #AB742D",
"Y  c #B67828",
"T  c #BC7D2D",
"R  c #853A44",
"E  c #893C46",
"W  c #8B3E49",
"Q  c #933F4B",
"!  c #B62F43",
"~  c #B93246",
"^  c #BD3549",
"/  c #CA2F45",
"(  c #CA3046",
")  c #CA344A",
"_  c #C0394C",
"`  c #CD394E",
"'  c #D13349",
"]  c #CB3D52",
"[  c #D13E52",
"{  c #E43C53",
"}  c #84434D",
"|  c #89454F",
" . c #97424D",
".. c #8C4953",
"X. c #954A55",
"o. c #9D4A56",
"O. c #95535C",
"+. c #81724F",
"@. c #93784E",
"#. c #A25560",
"$. c #A45560",
"%. c #936B71",
"&. c #B2606B",
"*. c #CC4459",
"=. c #D44458",
"-. c #E44057",
";. c #E4475C",
":. c #CE5568",
">. c #E44C62",
",. c #E35469",
"<. c #E35D71",
"1. c #CF6173",
"2. c #E2687A",
"3. c #AE882E",
"4. c #B18A2C",
"5. c #BB9335",
"6. c #CA852D",
"7. c #C68837",
"8. c #C39B3A",
"9. c #E28E26",
"0. c #E6922A",
"q. c #EA962D",
"w. c #FD9E27",
"e. c #F49A29",
"r. c #F89F2F",
"t. c #EF9B30",
"y. c #DEA828",
"u. c #E2AD2C",
"i. c #FCA628",
"p. c #F4BA2E",
"a. c #FBBE2C",
"s. c #F9A231",
"d. c #E6B030",
"f. c #EAB433",
"g. c #F4BC33",
"h. c #F8BF34",
"j. c #998148",
"k. c #AB904F",
"l. c #8C836F",
"z. c #A29775",
"x. c #CAA345",
"c. c #757E80",
"v. c #D27786",
"b. c #E26E80",
"n. c #E27788",
"m. c #7B8789",
"M. c #7C8789",
"N. c #828282",
"B. c #838789",
"V. c #8B8B8B",
"C. c #868F93",
"Z. c #889597",
"A. c #949697",
"S. c #93999B",
"D. c #8F9FA2",
"F. c #96A4A7",
"G. c #9CAEB2",
"H. c #B8B9A8",
"J. c #A6AEB1",
"K. c #A8AFB2",
"L. c #A6B7BA",
"P. c #D58593",
"I. c #E28695",
"U. c #E1909F",
"Y. c #D2BB8F",
"T. c #D595A2",
"R. c #D89EAA",
"E. c #E197A4",
"W. c #D6A2AE",
"Q. c #D9A9B4",
"!. c #E0A9B5",
"~. c #E0B1BC",
"^. c #DCC89B",
"/. c #E3D39C",
"(. c #CECFB9",
"). c #CFD0BB",
"_. c #D2D1BA",
"`. c #E9DAA4",
"'. c #E0DCBF",
"]. c #AFBEC2",
"[. c #D9BAC3",
"{. c #E0BCC6",
"}. c #B7C7CB",
"|. c #B7CFD4",
" X c #C0CACE",
".X c #DCC5CD",
"XX c #DACCD4",
"oX c #C8D4D8",
"OX c #DDD3DB",
"+X c #E0C0C9",
"@X c #E1DEC2",
"#X c #E3E0C3",
"$X c #C3DDE2",
"%X c #DEDBE2",
"&X c #C7E2E7",
"*X c #C6E3EA",
"=X c #C9E5EA",
"-X c #DEE1E7",
";X c #DAE6EB",
":X c #DEECF2",
">X c #DEF1F6",
",X c #E0EEF3",
"<X c #E2F0F5",
/* pixels */
"Z f f : z j f j : G $ . : $ $ - X $ & X X f ; ; l z G d k z G k f u j Z : d j ; l $ $ & : X & X $ $ . $ d - a o a d z s k j a j ",
"j k G C s s d C d - $ : o $ . $ X o f & X o X d s a : Z G G V N.F V : 1 j : - : X f & X o $ o & $ ; o - o o X d D & l f a & f l ",
"A l ; z k f z k & : a X . $ - d . f $ & . . X a f G : f j z G k G z D G l V l s - : o & . o : o X $ $ $ - - $ f f : & - - s ; j ",
"A d s z f Z d ; d $ & $ a X X . $ X $ $ $ : - a : - : G D Z G z D m.j f s o $ d - : - $ & X X & X & $ a & $ j f $ l a a f & Z s ",
"k k A z z - : V : j f j o $ f . o . . $ o - o j ; l $ F C C D Z G F ; l j h Z C o A & : & o $ . . . $ $ - . $ j & j f V d D f a ",
"; - : f D f z s d j f $ X $ X f X X ; X . f : ; : & - M A : z C j a j A l - d $ o & & & : . o - & a $ d   & a : a V f : j ; s a ",
"z f z Z V : : f z z d a $ $ X & f - $ $ ; X O & & s a : D s A j c.f a V V o Z C s - : s & & . $ . $ o : - - s s d - : d : u j V ",
"s & d a f Z j s l l f X - o - & a . . X & $ X - d s s m.- f A A j u l.; Z Z ; d o $ - ; X & . o - o $ & $ : a d - D $ a d C z V ",
"C D j : B $.Q o.o.o.o.H J H H E H H H Q 4  .H H E J Q $.o.o.&.$.&.W X.X.7 W 8 X.6 W W 6 4 4 > E 4 7 7 4 4 R E R E R } : V f d A ",
"Z V j D B [ { { { -.{ { { { { { { { { { { { { { { { { { { { { { ) ( ( ( ( ( ( ( / ( ( ( ( ( ( ( ( ( / ( ( ( ( ( ( ( ~ g u D D a ",
"k Z S ; v =.{ { { { { { { { { { { { { { { { { { { { { { { { { { ' ( ( ( ( ( ( ( ( ( ( ( ( ( ( ( ( ( ( ( ( ( ( ( ( ( ^ v V M f F ",
"V 1 G k n [ { { { { { { { { { { { { { { { { { { { { { { { { { { ' ( ( ( ( ( ( ( ( ( ( ( ( ( ( ( ( ( ( ( ( ( ( ( ( ( ! n & l A G ",
"f Z j : 1 [ { { { { { { { { { { { { { { -.{ { { { -.{ -.{ { -.{ ' ) ( ( ` ` ( ) ) ) ( ) ) ( ( ( ( ( ( ( ( ( ( ( ( ( ~ %.l V j Z ",
"A : z Z g [ { { { { { { { { { { { { { I.{.{.~.2.!.n.b.{.2.,.~.2.P.W.*.v.[.[.v.*.Q.v.) W.P.( ( ( ( ( ( ( ( ( ( ( ( _ ~ g l a A k ",
"f d $ k 2 [ { { { { { { { { { { { { { !.-XI.n.2.%XE.I.<X.Xb.-Xn.!.XX:.%XQ.R.T.:.%XT.:.OXQ.( ( ( ( ( ( ( ( ( ( ( ( ( ^ B s C & a ",
"a - f A n [ { { { { { { { { { { { { { !.:X+XE.>.%XE.I.-X%X{.-Xn.Q.XX*.R.OXOXT.:.%X%XOX:XW.( ( ( ( ( ( ( ( ( ( ( ( ( ^ B & $ f f ",
"z f d C # ` { { { { { { { { { { { { { !.OXb.,.,.%XE.n.OXU.-X,Xn.W.XX:.T.v.W.%Xv.%XW.1.%XW.( ( ( ( ( ( ( ( ( ( ( ( ( ~ u A j o z ",
"Z X o l # ` { { { { { { { { { { { { { W..X;.{ >.OXU.I.OX,.E.-Xb.R..X:.[..XXXQ.:.OXv._ [.R.( ( ( ( ( ( ( ( ( ( ( ( ( _ g & : $ z ",
"z f $ - n ` { { { { { { { { { { { { { ,.<.{ { -.<.>.;.<.-.;.<.;.:.*.( ] 1.:.] ) :.] ( :.*.) ( ( ( ( ( ( ( ( ( ( ( ( ! v s s j V ",
"j C f a g ` { { { { { { { { { { { { { { { { { { { { { { { { { { ' ( ( ( / ( ( ( ( ( ( ( ( ( ( ( ( ( ( ( ( ( ( ( ( ( ~ d A j j & ",
"; V f A 2 [ { { { { { { { { { { { { { { { { { { { { { { { { { { ' ( ( ( ( ( ( ( ( ( ( ( ( ( ( ( ( ( ( ( ( ( ( ( / / _ * f D C k ",
": k D C g [ { { { { { { { { { { { { { { { { { { { { { { { { { { ' ( ( ( ( ( ( ( ( ( ( ( ( ( ( ( ( ( ( ( ( ( ( ( / / ! u : & - f ",
"k A k D v [ { { { { { { { { -.{ { { { { { { { { { { { { { { { [ ' ( ( ( ) ) ( ( ( ( ( ( ( ( ( ) ( ( ( ( ( ( ( ( ( ( / 2 d : k z ",
"A Z S j * %.E X.O.X...7 5 p 5 7 > 7 8 5 7 i 6 | R 8 } R ..8 #...O...O.| ..R O.p i } 8 i 3 > 3 p 3 7 5 5 p i p p 7 | b Z u j ; Z ",
"Z & V j Z : d s z z j a & a o s . o X X & X : d ; k f A Z : f j u Z V j A ; ; $ - & $ f $ - o & - . o d X : d a - $ f l D f $ l ",
"C C f V.z Z : : l z f f : . X $ - $ o : - - s & & : V f D $ D A c.F z a V f D C ; - $ : a $ $ $ - & X & - : d s f : - a Z f z C ",
"f j A D C l V f k z j o   - $ o o . - . $ o . & $ s k V j G ; f V.f j f d B.s - s o a j o o - $ V f a $ X a s d ; & u a D V z j ",
"G N.D ; C a s f z z k - & o $ f X . o $ . o a f f f ; l D k C D D Z f S Z ; : Z : s f & X o X & o : & & & a s s j : V - j f A A ",
"j f D Z S j $ f z z j X j o %   $ % f X $ s & A X f & z j D f G C.l c.& C % j & : s o $ - $ X X o - a $ . s s s s o z z z : f - ",
"k f c.z D C b f z k k - o : j X X & & & s s f & s - G f C z d V.G F %.V z j z j $ $ o a - a X a $ o & X - a s s a : G X a z V N.",
"j A S k G j Z Z z z j : $ - % a & - o : j : A j - ; : D V C - G G D Z j k k f a s o & & $ $ . & a X - X - q s s : : f V j s C : ",
"& V a f - V D V z l j s a $ o f & - &   & - o z : : $ f j C a V.G D j f f A k f a - f a $   o X o X ; & o f s s - % ; Z Z f & z ",
"X & A M f Z j f z l k $ V X $ - X $ & $ X j ; a V : d j z A k B.A V.k f f l V C f f - - $ : $ & & & $ o f : s s l s l V $ Z j & ",
": o : f j C z V z z f $ :   o : X o a % . a & Z : d a d Z S C D N.j A f a A j q j a F X o : : & - : & : $ s s s f V V X ; - $ k ",
"& - a Z l $ d j l z l - Z - s $ a - . X : - - $ o a j D j S z V G A % N.d C j V & o V X $ & $ o : $ s & X a s s ; c.u : f d f V ",
"f a z & s j A d z z j : d & - : : ; $ o a j d $ & $ o D D f G A A V.G V Z z l s o u V & $ ; - s X a f f $ f s s ; o a f V.z $ d ",
"f $ $ D $ - V d l z j : ; $ - : : - & a X - f - $ j & V B.Z a D z A f Z k d V : D % $ X o X X & : ; d $   : d s ; Z Z F z s : z ",
"- l a - - : A ; z z j h & $ - $ o o X X : j : : f o : & l b f A Z D d j A f f s A j - ; & ; $ o $ o & . d : s s f o C q l % f A ",
"j o f l f A d k l z k : j a & s : X . o ; a j f f z D A Z C z z f m.Z f - q D : f V V o & & & o : o & & : d s s s - V z V z a z ",
"s - f D ; : Z s z z j $ $ a & %   o - X % % $ & $ j j a G D l G C j : D j z f $ o f : 1 $ o % $ f $ & - . : s s ; o V f - d d l ",
"- d G s Z - z j z z V s X & % I 5.4.3.4.4.3.4.4.5.8.5.5.5.x.8.5.7.T 7.7.7.7.Y 7.Y T T T 4.Y Y 7.K * o $ a s s s f k & ; z : & j ",
"V a z f f ; : d k z j - s : y p.a.a.a.a.a.a.a.a.a.a.a.a.a.a.a.a.i.w.w.i.w.w.w.w.w.w.w.w.w.w.w.w.e.y & & - a d s s ; f $ V V d f ",
"d s s j A : a k l z z - & = 8.a.a.a.a.a.a.a.a.a.a.a.a.a.a.a.a.a.i.w.w.w.w.w.w.w.w.w.w.w.w.w.w.i.w.6.1 $ X d s s a Z - Z a Z f G ",
"& Z Z A l f A C z l l o : 9 p.a.h.h.h.h.a.p.p.p.p.p.p.p.g.h.h.h.s.s.s.e.e.e.e.e.e.e.r.s.r.i.e.s.r.e.e % - s s d a : - a k z % f ",
"- j Z - f G Z q z z j G f H.@X'.@X@X'.#X(.l.m +.m +.+.+.z.'.@X@X@X(.(.l.r r c t t t N H._.(.).).(.(.H.V a s s s k V f & A C - ; ",
"& : F a V j f : k z h z J.:X:X:X:X:X,X:XS.k k k k z z C }.>X:X:X=X*X*X].f s a s s s d M.&X*X*X*X*X*X*Xm.& s s s : X : V z & f a ",
"Z s D j j f & f z l f s  X,X:X:X:X:X<X}.M z z k z z z C.;X:X:X:X=X=X=X&Xm.a a s s a a f L.=X*X*X&X*X*X}.j : s s d f d d f C d f ",
"z k f f j V j f z z f S.<X,X,X,X,X<X=XF l z k k k z Z oX<X:X,X,X=X=X=X=X}.l a s u a s a Z |.=X=X*X=X*X*XZ.a s s - a % Z V f f - ",
"G z j A z ; C z z l M F.J.J.J.J.K.K.].S.A.S.A.A.S.A.V.G.J.J.J.J.F.G.F.F.D.c.m.m.M.M.M.M.m.G.F.D.D.D.D.D.C.f d d q - V A d c.Z D ",
"; : j V V s f z z z z z z z k l k D oX<X,X<X,X,X,XoXA j k k l k f a a d a j }.*X=X*X&X*X*X|.V a s s s s s d s s : k a - A z D l ",
"Z s N.Z f h z z z z z z l z z z z L.,X:X,X:X:X;X;XZ.k z z z z k f a d a a a c.*X&X&X&X&X*X*XF.d s s d s s s d s f : ; j d G z D ",
"j D z A G z l j z z z k z z z k B.;X:X:X:X:X:X,X].V z k z z l k f s a d d a f G.=X&X&X*X*X*X$XD s s s s s s d s a f j ; Z s S j ",
": j f N.z d : : z z z z z z k Z }.<X,X:X:X:X,X&XG k z z z l z z f a d a a a s Z |.*X*X=X&X&X=X].j s a a d s d d - : l ; ; s Z Z ",
"C C k G C f V f k l l z l l k F.:X:X:X:X:X:X:XG.z k l z l l l l f a a a u s a d Z.=X*X*X&X&X&X*XM.a a u a a s s s l k V Z Z C D ",
"A b D a d f l y j.j.j.j.j.j.j.^.`.`.`.`.`.`./.k.j.j.j.j.j.j.j.j.@.L +.P L L L L @.Y.^.^.^.^.^.^.Y.@.L L +.L L L e - j l D M : s ",
"S.d D D A - c f.a.a.a.a.a.a.a.a.a.a.a.a.a.a.a.a.a.a.a.a.a.a.a.a.w.w.w.w.w.w.w.w.i.w.w.i.w.w.w.w.i.w.w.w.w.w.w.w.9.m V D f j Z j ",
"F G Z N a f 5.a.a.a.a.a.a.a.a.a.a.a.a.a.a.a.a.a.a.a.a.a.a.a.a.a.i.w.w.w.w.w.w.w.w.w.w.w.w.w.w.w.w.w.w.w.w.w.w.w.w.U * f C z D j ",
"G a a Z l 9 f.a.a.a.a.a.a.a.a.a.a.a.a.a.a.a.a.a.a.a.a.a.a.a.a.a.i.w.w.w.w.w.w.w.w.w.w.w.w.w.w.w.w.w.w.w.w.w.w.w.w.q.9 C s a - a ",
"A f z V.a k.f.d.u.d.u.u.u.u.u.u.y.u.y.y.d.u.u.u.u.d.y.u.d.d.f.f.t.t.0.q.0.q.0.q.0.q.0.9.9.9.9.q.9.9.9.9.9.9.9.0.0.0.U k z V V f ",
"k A D z d x c = c q w w 0 @ + q = + 0 O @ < < < S M q w M l.l.N N M x N c M N q , = = 1 , @ + @ w , , w x , 1 c N x w j s Z k - ",
"j D j j z : f d a - - $ & : & o & & o $ o & & : - o C ; s Z D G z z G D a - - C & C : X $ X & a & $ X - o o . o ; j f : j z 1 ; ",
"z B.F M Z a a : f - : $ X $ o o %   X : X - - : j z z a h Z N.V.N.z : f l z V u ; $ & $ o o $   o ; & o & X $ & - ; - j f N.j F ",
"D z Z j j j j & & j % & - o . a X o o $ - . - a - X & V s z z f j V : V d V $ d a & & o . $ $ & : o X & o X & a - f f $ C a f s ",
"A C j D a d Z & $ f & a - $ X o o o . & o & o ; a Z d a ; G C N.D V V j d a D Z & $ o ; o o & s . - & $ . $ - X X o & s z j j j "
};
