/* XPM */
static char *result[] = {
/* columns rows colors chars-per-pixel */
"64 64 139 2 ",
"   c gray1",
".  c gray2",
"X  c #060606",
"o  c #070707",
"O  c gray3",
"+  c #090909",
"@  c gray4",
"#  c #0B0B0B",
"$  c #0C0C0C",
"%  c gray5",
"&  c #0E0E0E",
"*  c gray6",
"=  c #101010",
"-  c #111111",
";  c gray7",
":  c #131313",
">  c gray8",
",  c #151515",
"<  c #161616",
"1  c gray9",
"2  c #181818",
"3  c #191919",
"4  c gray10",
"5  c #1B1B1B",
"6  c gray11",
"7  c #1D1D1D",
"8  c #1E1E1E",
"9  c gray12",
"0  c #202020",
"q  c gray13",
"w  c #222222",
"e  c #232323",
"r  c gray14",
"t  c #252525",
"y  c gray15",
"u  c #272727",
"i  c #282828",
"p  c gray16",
"a  c #2A2A2A",
"s  c gray17",
"d  c #2C2C2C",
"f  c #2D2D2D",
"g  c gray18",
"h  c #2F2F2F",
"j  c gray19",
"k  c #313131",
"l  c #323232",
"z  c gray20",
"x  c #343434",
"c  c #353535",
"v  c gray21",
"b  c #373737",
"n  c gray22",
"m  c #393939",
"M  c #3A3A3A",
"N  c gray23",
"B  c #3C3C3C",
"V  c gray24",
"C  c #3E3E3E",
"Z  c #3F3F3F",
"A  c gray25",
"S  c #414141",
"D  c gray26",
"F  c #434343",
"G  c #444444",
"H  c gray27",
"J  c #464646",
"K  c gray28",
"L  c #484848",
"P  c #494949",
"I  c gray29",
"U  c #4B4B4B",
"Y  c #4C4C4C",
"T  c gray30",
"R  c #4E4E4E",
"E  c gray31",
"W  c #505050",
"Q  c #515151",
"!  c gray32",
"~  c #535353",
"^  c gray33",
"/  c #555555",
"(  c #565656",
")  c gray34",
"_  c #585858",
"`  c gray35",
"'  c #5A5A5A",
"]  c #5B5B5B",
"[  c gray36",
"{  c #5D5D5D",
"}  c gray37",
"|  c #5F5F5F",
" . c #606060",
".. c gray38",
"X. c #626262",
"o. c gray39",
"O. c #646464",
"+. c #656565",
"@. c gray40",
"#. c #676767",
"$. c #686868",
"%. c DimGray",
"&. c #6A6A6A",
"*. c gray42",
"=. c #6C6C6C",
"-. c #6D6D6D",
";. c gray43",
":. c #6F6F6F",
">. c gray44",
",. c #717171",
"<. c #727272",
"1. c gray45",
"2. c #747474",
"3. c gray46",
"4. c #767676",
"5. c #777777",
"6. c gray47",
"7. c #797979",
"8. c gray48",
"9. c #7B7B7B",
"0. c #7C7C7C",
"q. c gray49",
"w. c #7E7E7E",
"e. c gray50",
"r. c #808080",
"t. c #818181",
"y. c gray51",
"u. c #838383",
"i. c #848484",
"p. c gray52",
"a. c #868686",
"s. c #888888",
"d. c #898989",
"f. c gray54",
"g. c #8B8B8B",
"h. c #8D8D8D",
"j. c gray56",
"k. c #909090",
"l. c #9D9D9D",
/* pixels */
"#.Q P C [ Q U ~ B 0.q $ b t 0 f > 7 g , - Q n x ` ' 7.I ) { 6.) T A / #.Z K Q b ] r e f n > p : y 0 % t H j C 3 F K ] H / ! S ~ ",
"Q ) 5.X.D D K O.I j t M 8 p & y < 8 T p ; 4 1 H F C C +.0.q. .y.8.} n S ! B j V 2 T p : 6 w 9 f t v 7 j 8 9 < J 3.i ` I D a R _ ",
"-.' M ] ^ R } ) d V Z , O t z L - K u d * * > S ~ 5.b Y W [ 6.` q.] 1.7._ } ' D v n 5 y - 8 N 4 < r w r x k t W R m j l c D c ~ ",
"*.J S ] W @.K v J e d y C > 3 @ 9 , 9 y 0 m l Z v c n q.3.%.8.` 6.e./ I G 6 i K j V v t i - , s 1 s 9 F f t E I r / A A Y p %.D ",
"/ ( -.{ [ g B | m W I ~ 3 9 P = 3 # & e 4 z q W B ( i 4.@.O.1.+.7.5.c ' ! Q #.+.6 =.f B f 3 w * $ O u 0 c $ r Q a Q Y o.J >.Y C ",
"B z b E >.W } Z 4 i P r 3 t : Y 1 - c > = I B m v h j X.>.m { X.^ S Q #.` j K r 9 f a p N = 4 g f A q J . 9 f > C  .T M / n H Z ",
"] R ' #. .B N V _ 4 : A e t < i T k t e n ; r i g D S B 3.J -./ w.L A O.} 8 $.o.G h b J i g & u % t 5 M k : $ M I c M P Z C ! } ",
"S f J V E #.! t q w & : l 8 l s V & - - g 9 ; c K H F r.g U =.&._ D q.n %.@.M L 2 t b b : s $ 3 x 6 8 h 8 l a _ 0 >.t C P O.} ..",
"+.,.~ N $.&.L ! b  .C 6 i 8 w x 2 - 6 D # Q 0 : z s M %.Q ' i.-.h.R | %.i U j X.8 E Y i 3 4 O I 6 r e 2 , M n j R A R b  .U I =.",
"%.| ~ ,.O.( [ J P #.x z % / W = . t b 7 2 Z u l d @.e N 8.` P y 4.~ ~ ! X.~ I 3 Z J h a w # @ z 6 k Z h & k > D w T m Y A 3.:.D ",
"( $.,.M E X./ o.n &. .r 5 m 0 t 5 j 0 j = < c Y ) I s 0.F #.q.` =.^ 1.o.i L S n d A 4 v M & X 1 7 3 7 7 5 3 i G b q X.Q [  .R 8.",
"} C 6._ ` ^ 0.H J P E Z . , 2 5 2 i $ * c u l s K D D | x ` K :.q.Y :.E ] @.-.I H g M a > i 7 2 = u w 8 e 4 6 ; 9 D s ..j ` =.6.",
"U @.^ V l +.( 4.K Q q 0 - 9 9 l > i @ : > Q w L N x B E T ) =.0.u.} U ) j [ %.e G #.y r ] 4 @ 6 s t > > = i 6 q ..W J e._ | ^ $.",
";.m } #.F L F H K / j J v > # 1 8 1 e 4 $ s l R o.{ L o.| 3.0.3. .1._  .^ ' I u z n n 6 9 9 i 8 4 2 e k o : v { S E J L ` S ;./ ",
"! L 0 _ V F g ' s / 7 $ 5 0 w + O $ w e - 9 b j 0 Q 5 { p 2.a.=.| 7.o.i o...! r j 2 B C : u 5 > q 9 o O 9 g r m D A ~ $.F O.p S ",
"C j Y =.[ F x x D 3.q d G - R q = , : $ & U u @ B P / X.K X.6./ 0.] T ^ m X.K ^ U y n ' y u 6 6 r > u 5 p p t s r ;.! o.h q T I ",
"] T K ..4 v ~ S U 3.F q , # 7 7 q t e t A U 5 A I f F { _ i.q. .r.p.G [ M ) ' { j u d t A i * 5 g r h v . 2 9 I t V Z H *.^ 7 ] ",
"o.> 4 [ 1 U &.H m B ! f s g 4 O . b y q ; - Z g b ^ G ^ $.-.;.@.w.( e.] P B i { ;.9 j s : 1 * T * R $ O 7 7 e & ~ #.+.I i V 0 _ ",
"[ Q y h ' k :.:.T ..C n U p u u 1 k + = ; q S p u C M E ! ' { 1.3.W B { :.I A ` ` U 7 s 8 k : z u & t 3 Z a n  .D +.q ! G F ~ X.",
"Q X.K Z D 6 Q V V :.I : c 9 s u ; @ 7 o : 8 u n _ P ` 1.L #.*. .~ ` / z / A *.m ,.n v e N 1 1 9 ( F x z , 2 q f c 8 D A ;.) Q s ",
"m X.L -.B / 2.@.| Z 0 h 8 < 9 b - i m   h S G Y c ~ W / *.+.} @...P <.^ S Y H #.y U & m 7 y t r 5 P , 6 , d _ 7 ..v 4.u H :.O.' ",
"N ` >.#.I S o.W : v d , > A N 2 & v 2 v $ 8 6 9 / B Y %.0.P 3.1.@.Y H S M z B r c Z z > v = y i l v = 5 ( N D b { B M D C f j U ",
"/ =.) ,.Y %.<.Z *.T b r 8 6 B w - b + n n % n j 0 T S u.%.x -.i.>.>.W / E U l S & =.@ g c : 4 j N  .& @ # F n 0 B P V B K Z ` { ",
"=.#.*.Q j 3.D { ^ H U 9 < c 6 q X e u 2 t k r Y N c G c Y h &.W -.' :.~ ..E #.S N / h B - > 3 P 2 g u 9 C O i E 3 / ! *.A ! v @.",
"%.p X.W +.m L j I ^ c Z f V 9 A # 4 4 < g > N J v _ I :.%.v Q ! A *. .Q &.n b i l g e I i l 6 u l = 8 J ; : q 5 0 y R ( >.U 0 ` ",
"O.X.Y h.| #.m w e j ; Q N o 1 y z e 0 v z j F f a M ] E <.a ,.=.q.8.[ S  .P 6. .x l 9 V D e u u l y > d x 5 r m E B z D %.T { @.",
"E ! *.,.+.) ..k Q W b 5 + v e 3 5 $ j * e 0 # s w F / ../ 6.v R g.P ( P G a.Z l J 9 S Q 8 8 k q  .I D t 1 f L z u s D C ,.{ [ Q ",
"6.y.>.M  .A S G F C T h p 1 p E , @ 2 w @ 7 S K W Y n ` ,.) o.1.:.*.Y ;.@.b Z +.m H I h = 5 ; d 9 m a a u m [ 3 ..M } M ( U =.=.",
"Q R :.%.:./ q P Z w.U ; W 5 y . w s R - u A h =.> U s } ^ -.I 8.j.` q.k o.p ~ a N K 4 r l 9 2 ; 5 z C t O I u r F 0 } ` ] v ! k ",
"_ R 0.{ >...} m o.X.) k 6 N ! : = h p j G D P a A k 4.Q @.[ K h.w.,.8.{ { W { / 9 e 7 C c F > V t 4 a 2 z b ] D m n 6.1 A {  .t.",
"^ &.;.^ 8.( @.>.F ! H v e z i A p k 6 D ~ Z -.Q z m M >. .@.x 9.8.3.#.^ ) ^ L A L 6 g s 0 i @ s B 3 j < k b G C x B U } Q D ..Z ",
"f { V W x  .5.+.E Q D G D e 6 T h l a   a k 9 ] B V y P W X.Z d.5.3.Q E Y ,./ T A j P S q X 7 : 7 - v f 5 { P i 8 i b $.#.P d { ",
", h ;. .I %.! A l G A u [ 2 q b ; w h e > ^ b A } M P ( ] =.` p.-.g.( I Y ) } @.U Y j j y V w s g p u 7 U u 9 h 1.A ' [ t @./ d ",
"N 7 m R ! +.] %.U T w e N O 3 M 4 3 A i & C g $.m J C K +.-.o.3.y.^ ;.P A >.Q C Q N q.2 6 n N h z N a b 8 P H x T | | < v x i ( ",
"t c C +.` 0 J U ^ Q K g @.x H t B c % = m c k 0 7 C / 2.~ ;.(  .8.;.y r.K +.^ X.f 8  .1 u g 0 4 n i H p ; x , 5 g r.Z v Y J I } ",
"I G [ f D / &.x ,.%.U n H g x V N v u 6 V E J u l r 3 <.,.Y w.>.&.f.8...+.[ ( H 8 G  .p y c h H = A E I q E m S p 2 G W d.) i J ",
"I 9 t <.t c { j Y ^ C V b e k v N b f B , b U b e ~ a  .u.#.A >.[ -.T &.( K  .c 2.y q > 6 1 < i N b P 0 o 5 n U k %.=.3.' H m ] ",
"z ` J z j B =.1 P o.G E p q c i 8 3 , , m ~ m M U 6 M s ]  .Y *.@.>.J ^ :.Y T J :.W j n p v e 2 p 4 p O K u T v L 6 O.Z ` i U ;.",
") 7 K ] Y &.L W ^ q.J n ~ C s G n , $ 5 n Z ! R T _ 1.=.&.o.| { U e.$.Y l A >.m P  . .0 i g p 0 m 5 f j m ! / N D x  .{  .` A ' ",
"G j Y >.N B @.g T Y z p y A h y X 8 h > t i 8 h 0 ! / A 3.,.( <.o./ B ,.W { R q 7 K B V r 2 i e Y u a h % 0 $ n p 7 } U z I J ) ",
"c K 7.H +.h | Y x c &.F , s e m V f 1 j p y s d ( ( G W A ,.| Y T A %.%.Q O.d ) g Z j B Y 0 d J 3 s 7 0 S M i I ( ^ d n ] N g W ",
" .V ` Y Y M M k 9 &.D j H N C a t , t k Y J g S p / M K ( w.o.y.F  .Z F ..M C Y *.n N t 7 r a Y Y C p f l z k ~ F b E e ] } J R ",
"K J F ~ ;.b Z ~ h E %.h s f L a w @ t , k S X.u %.O.A G ( L w. .s./ &.V 2.n } H l J m q a w 1 v L Z N t ; R N J C @.j %.A @.U 4.",
"a #.$.=.' I ;.-.b s Q 2 b & u U t : U 9 R @ n m Z g W V | s I *.Z 2.D [ T D F E Y ^ F s 5 l G M *.M q u k N z M m V k G / ] y W ",
"l ! @.z Q 2.=.y I S v 8.M w r 2 , y @ F c z * 3 / Z n _ ( Q %.} >.[ k M  .U W [ U U 5 j + V x 2 g 5 C _ Z Z : y $.} K h ;.X.j b ",
"k A 4.C { ~ W 6 j T x | =.k v A * 1 0 i c s p n ^ 0 o.w.X...P E >.4. ...L F L U R O.H N & = e p g p N f s N j D k 2 N  .} a W F ",
"&.G 2.~ ! Y i A Y I f 0 t t g n h q r T * p l F V y ` / -.<.] S X.! o.` W B Y [ j Z Q * t 7 < U e K f Z m 0 M S L U P H W ..H R ",
"{ / P L ! X.^ S K z - u V w R - o t a w f b t +.P / B { O._ W n $.[ | I X.| ] e Y A p & b 6 2 0.h v j n k p q Y e S u o.} U U l ",
"0.' ^ -.{ x  .] 4.U E / K a z a X p n , u M C l / 9 ! | Q w.! 7.*.=.1.o.^ c @.h b G v g q [ t s h 4 9 $ x 3 R 0 G z ..:.G q.%.,.",
"c N Q }  .H I +.m ^ b - 7 w & e = D c = d N < M Z C / { N B -.0.~ I { ' ( ..^ M z S n q ..p 4 C 9 % , > 9 4 0 S c ) A x *.] >.` ",
"@.H i.#.E W _ [ D W j j 8 r m N = ; # > > 2 4 l , W M #.Y &.E a.{ t.<.X.=.X.D F 9 f a r D d M } x ; s e r J G i R V c E J 9.' 2.",
"^ <.] *.9.` ' U A P P 8 l 0 s 0 t e g $ + : m T S C r P $.X.X.i.S o.| :. .+.H a 2 f t a a 5 ; z n 5 t h z 1 y < V Y ( c $.D <.E ",
"V T ! t.` L N 8 H B 1 , y : u r b M X y S A 9 [ c A Y =.R Z 2.q.` F &.>.<.I P b S J b j f $ < 5 , t S e t 9 i N e C ' b v S %.$.",
"O.#.( q...E  .G ^ K y 3 ] ; j : i d . : + j l 4 ` d s ` ` <.g.=.-.<. .U } ' L D Z C k 4 a Q * F } r w f O r f . V _ ) } &.&...<.",
"&.[ :.A K ! ( d N @.R v H 1 - f z a y x h t %.T U J R 1.@.:.4.e.&.5. .J >.{ ( l b N C e k ' , 7 8 h K b 6 , i w y l ! ) 2...B D ",
"l.H <.<.%.h P &.I b ! S r * P k y e 5 S O Z V Y E T J ! 7.~ 6.>. .w.J ] A -.Y M E z V ` c 7 5 s O j c 0 3 & h % h ( O.-.E ~ %.~ ",
"4.9.#.@.S P T *.c j 2 j C w L l u t O 6 q 0 C T / ! I +. .C &.M ;.( Q m >.} { c 4.v A f J 9 l M 4 < w < > y q U ! p s U O.] 2.! ",
"0.F Z @.' y G W ( H J w T z k c w c 4 a [ $ p Z v A ~ o.U ..*.^ 5.*.a.J L ^ W L p +.* ] 4 w p p a w w h s W p D M H f +.J Z j Z ",
"%.U [ s.A X./ Q j Y c 7 i h 4 y $ G u u [ 9 0 v c S l k Y Z -.f.7.8.H ) F ' S ,.G o.t 2 0 , : { ; 9 t w = y 5 c S W A ( [  ...L ",
"' *.2.[ L I W i ! g B V a 0 ; k 9 % m O 6 u p s $._ d C W w.5.} o._ W o./ ] { v y w e j f 8 , 4 N s h V R i l /  .Q N T H @.] c ",
"! 4./ E ) N T I G x j e z N g 3 i g 4 r 9 g f N c 7 @.v D $.3.9.' ' 6.<.Z k z O.s X.M < w 3 s V f e 1 x 5 4 @ 1 v ( K C ~ [ C b ",
"} i.9. .%.F C M I n M e , 0 4 7 y o - m 1 l j V ! _ _ C R #.r.k.u.[ C R ` ] o.A m q k 0 8 3 e + 3 x i 9 s ; i g j n l Q R q.^ 2.",
"4.[ &.~ _ W ~ j p R t s k 7 * S 2 3 3 r l # x Z l - f | H [ ) L Q } B { P  .w L M d a 2 @ u u u M w 1 u 9 1 h A v U Y w +.A Q H ",
"=.+.W <.C J @.s 0 R j S x 9 < 5 3 q # a 7 i 3 M A #.P Z x e.+.p.4. ...! P V 1.*.g p 7 n 2 6 i F & k a r + w l 1 - 5 d G [ Q ^ W "
};
