/* XPM */
static char *result[] = {
/* columns rows colors chars-per-pixel */
"64 64 65 1 ",
"  c #D3BC9C",
". c #D3BF9E",
"X c #D4BD9D",
"o c #D5BE9D",
"O c #D5BE9E",
"+ c #D4BF9E",
"@ c #D5BF9F",
"# c #D6BF9E",
"$ c #D6BF9F",
"% c #D7BF9F",
"& c #D4C09E",
"* c #D4C09F",
"= c #D5C09F",
"- c #D5C19F",
"; c #D6C09F",
": c #D7C09F",
"> c #D6C19F",
", c #D5C1A0",
"< c #D6C0A0",
"1 c #D7C0A0",
"2 c #D6C1A0",
"3 c #D7C1A0",
"4 c #D7C1A1",
"5 c #D6C2A0",
"6 c #D6C2A1",
"7 c #D7C2A1",
"8 c #D7C3A1",
"9 c #D7C2A2",
"0 c #D7C3A2",
"q c #D8C0A0",
"w c #D8C1A0",
"e c #D8C1A1",
"r c #D9C1A1",
"t c #D8C2A1",
"y c #D9C2A1",
"u c #D8C2A2",
"i c #D9C2A2",
"p c #D8C3A2",
"a c #D9C3A2",
"s c #D8C3A3",
"d c #D9C3A3",
"f c #DAC2A2",
"g c #DAC3A2",
"h c #DAC3A3",
"j c #DBC3A3",
"k c #D8C4A3",
"l c #D9C4A3",
"z c #DBC4A3",
"x c #D9C4A4",
"c c #D9C5A4",
"v c #DAC4A4",
"b c #DBC4A4",
"n c #DAC5A4",
"m c #DAC5A5",
"M c #DBC5A5",
"N c #DAC6A5",
"B c #DBC6A5",
"V c #DBC6A6",
"C c #DBC7A6",
"Z c #DCC4A4",
"A c #DCC5A4",
"S c #DCC5A5",
"D c #DDC5A5",
"F c #DDC6A5",
"G c #DDC6A6",
/* pixels */
"eihbbbhhbhiq%1ifreeeiiiiiieeiidduu00000065--57pkkkkk0066666600kk",
"wyhbbhiihjhieeiiiiiiiiiiiirriiddu97800000655600kkkk006666000000p",
":ezbhi11ibDSbieebbbhhhhhhfiifhddu42566000008000kkk06,,,50kcck007",
":ehbhi1eibSSjieibSbhhffhhhiihhddu42-5600kk0000000062,,,560kk0007",
"weihhhhhbhieqehbbbhiirriiiiihhddu72--580kk000006,*-2666,,***,60p",
"eiihhhbbbhe11ehjjhireeeeiiiihhdduu5,,560pp000006**-58066**.+=580",
"iihhhhiiihhiieeeiiieqweiiiiiiidddp06666700766666666800066,,,--55",
"rihhhieeiihbhi11iiiyeyihhhiiiiddds00666000655666000000006665---=",
"qweiiieeeihbbgwwghhhzbbbbbhhiidduu000000085--,66666666666665-*&+",
"::1eiiiieeihhfryhjjbbSSSSZjhiiduu7900pkkp05---56,,66000665,,****",
":::1ehbbie11wrfhhffhbbSSSZjhiiuu32600kllk065--5,**,0kkk05-***=26",
":111ehbhe111weyiyrrihbbSSbhhiiut32660kllk065--56,660kckk065,,660",
"weeeiie111ihhy$O:qqwihhbbbhhiiuu44660pkkp065--50ccckkkccNNNck006",
"weeeiie1%1gzziOo:wweifhjbbjhfiuuuu9990007762->2pNVmcxxcnBCCNcs96",
"::$1eihiq:wyii11ihiihhjbZZbjhduihvdu9432222;;;3uvMMmmnvvvvldu944",
"::11eihgw::werriiiiihhhbbbbbbhdidddiu43<<<<11<<4uddvbvvddduuu444",
"$1iie1iiewwwwwie$$:eihhhhbbbbbhu$@4iddu4444ee4@@@<3thvuudduuuu44",
"1rbbeeiiiieewrfeOX$wifiiighbbbhe@@3udhiue4uue4<$$;3tdduuiiuudduu",
"hjSShihhhhirfhhi$O1eiireweihhiewee3eahiieeee11eiiiahhhdiiihhvvhh",
"hzbbhhhhbheehhie11eiiiee1wyiirqqrywwyiiiiee111iffhbbhhbbhhbbbhhh",
"iyyyghihbhe1ir%$1eiiiieeeeiiirq:11ee1ehhhi1$eeerrihbbbSSbbGShiew",
"eeqwihhhbheqie$$eihhiireeiiiiiw:$%qeeeihiyw1eiiiiihbhzAAhhSShew:",
"ireeihhbbhiijh11ihhhhfiiiihhhie1$$$1ihe1wyhhiiihhhbhywye11ihieew",
"iiewweifiieijhq1iffffiiiiihhhie1:$1eii1%:ezbhhhhbbbgw:%##$qeeeew",
"iyw:OO1%OO$qiiq1errrreeeeiiiiew::wiie1::qeihSSbhbbhie1#O#$%1eew:",
"fiy1OO11OX$eiiwwwwwwwwwwweeee1::1wii1$:qeeeibShhhhiiie$$1q11ee1%",
"jzzheehhe1eihiiew::::::::1111$$1ew$$11weriii11iiiieihhiibjieie$#",
"hhbbiiSShihhiireq:::::::::::$$$1e1OX$1eiiiie$O1eerribbhhbbhiir1$",
"1ehbihbSbbhieq11qwww::::$$$$::111$OXX$ehhi1$$OO$effhhhiihhiihfii",
"1ehbhhhbSbiewwweeeew::::$$$$:wee11$OXO1eee$$%$$$eiiffiirryiiiiii",
"eibbhiyibbywyghhie1:::$$$$$$1eiiiie1$OOOO$1qeee111erriiiwwyywwww",
"ihbbhiwwffwwyghhie1::::$$$%11eiihie1$OXXo#1eerrw$$1eeeiy11eewwww",
"ihbbhieq11qwwwwyhi1$$:11$$qe$$1eiiw:$$O##%:11qq:$$1eeew1:1eeeyii",
"iihhirre$$ee1:1wiie111ee$$$1$%:wee1:$$$11wwwwqq:$$1qq1:$$$1eriii",
"eihhewie$$eiw1eeweiieehi1O X1reww1::::1eeyiiyrrw$$$%%$$#$$:qeeww",
"eiiiewre%%eyeeir1:weihhhe$ X1ee11::::1eeiiiiieee$$$$$$##$%:1ew::",
"ieeeir11rr11ihhiq$O$hShiie1$$$$11wwwweeeiiiew11111:::%$$%:qeew::",
"ie11ee1qfi11ihhgy1O$hbiyiee1$$11eeeeeeeeiieq:$$$eewqq1111weeew::",
"eee11eiffieewrfhzheweewwee11ihiiiiiiiiiiiyw:%$O$eiyrreeeeyiiew::",
"ee111eihzhiewwygzbhiwwweew:whbhihhiiiiiiiieq1$O$wrryiieeerreew1:",
"ie$$ihygFSe1eywwyihiiizziw:whbhhhhiiiiiihhiire111qqweeeewqq111ww",
"rw$1ihygGSe1yyw:weeiihSbieeyiffffiiiiiiihhhhfiie:%%:1www:::::qee",
"qwweeyzbbhhiew::w1$$ehbheehhe1erreeeeeiihhbjhhhr%##$$:::::::weri",
":1eewyzbhhhhrw1wee$$$1ii1whhe1eeeeeeeeiihhbjhhhi1$##$%::::::weii",
"::1weyihhhhhfieehhe$  O$$$1ehhieeeeeeeiihhhhfiiee1::::qwww::weii",
"::1weeeiihjbhhiiiie$XX$%%$$1hbieeeeeeiihhjjhhiieiyw111eeew::weri",
"$1ee11eeerbSbhhie1$$effffieeiiiew1eeiihbbZZbbhiihhieeeeeew:::qee",
"%1iieeir1qhbhiii1$O$hbzhhhieeeiywweeeizbhhbSbjfhSShieeeeeeewwwww",
"qeihhhhiq:qewweee1::wyyiiiiiiiiiyyiewyzh$$ibbjfhSShiiiiiiihzzgw:",
"iifhbbbhe1$$:1eeeewqqweeeeeeeeeeriie1wziXXibbbhhbbhhiiiiihbbbhyw",
"hhfhhbbbhe1$$1eiiiirreeew111$$O$qeee1whiXXiSSSbhiihbhieehhhiyyhz",
"bhiihhbbhi1%%1eiiiyrreeq::$$OOO$eiiewehiXOiSSSbi11hbhieeigirwybS",
"hhiiihhhhieqqeeewwwqq11:%$$$OOO1hbhhiihiOOibbhie11eihhiiewerihbb",
"fffffffffiiiirew:::::::%$$$$#$$ehbhhiihiOOihhhiie1weihhiw1eihbbj",
"rihjjhirrihbhfw:::::::$$#O$$$:eeiiiewegi$$ibbbbbhiwwiihiwwihSShf",
"eihbbbieeibSbheqqwwww11$$#$$:1eeeeew:wir%1hbSSSbbhyyyiirweihbbhf",
"eibSSShiihbSSbirryiiyee1:$$$$:1111ew:1ee:whbbbbbhhbzie11rihgyyhj",
"eijSSSbhhhbbbbhiiiiiiiiewq111:::weyewweeqwfhhhhgihbbiq$$eiirqwgj",
"iifhbZZbhhiihhhheweiiiiiiiree1:wihhhiyireeryewwweihhie%$$$11:wif",
"iiiihbSZjieeeihhw:1eeiihhhhiirweghhhiiiiiiiewwwweeiiirq$OO$%qwer",
"iieiihbZji111egi1$$11wiihhhhhhfiiiiieeeihhhiiiiiee11eiieOO$1iiwq",
"iiiifhbbhie1qeiie1111weiihhhhhhiirrrreeijbhhhffie1$1eeie1$1ehfw:",
"hhhjbbbbhhiriihhhiieewwweiiiiiiiiffffiifbbhiirrew1ee111eihhhirew",
"hhbbSSbbhhiihhhhbjfiew::weeeiierfhhhhhihbbhieeew:qre1$$1hbSbieee"
};
