/* XPM */
static char *result[] = {
/* columns rows colors chars-per-pixel */
"64 64 76 1 ",
"  c #000000",
". c #090807",
"X c #0B0B0C",
"o c #13110E",
"O c #131213",
"+ c #181614",
"@ c #1C1A17",
"# c #171618",
"$ c #1C1B1C",
"% c #211E1C",
"& c #25211D",
"* c #29241E",
"= c #201F21",
"- c #252425",
"; c #282624",
": c #2B2826",
"> c #2B2A2C",
", c #332F2B",
"< c #363029",
"1 c #39332C",
"2 c #353435",
"3 c #3D3631",
"4 c #3B3A3A",
"5 c #413C35",
"6 c #4F473B",
"7 c #50473B",
"8 c #51483C",
"9 c #3F4040",
"0 c gray25",
"q c #4A4A4A",
"w c #564E42",
"e c #584F44",
"r c #5A5145",
"t c #5E554A",
"y c gray33",
"u c #5E5E5E",
"i c #60574C",
"p c #665B4E",
"a c #695E4F",
"s c #6A5F50",
"d c #6D6252",
"f c #716555",
"g c #736856",
"h c #696969",
"j c #797979",
"k c #9F9077",
"l c #A18F77",
"z c #A2927B",
"x c #96938B",
"c c #99958F",
"v c #9C9D9D",
"b c #A69780",
"n c #AA9B84",
"m c #AD9F89",
"M c #AEA18E",
"N c #B1A38D",
"B c #BEAA8E",
"V c #B4A692",
"C c gray65",
"Z c #ACACAC",
"A c #B3B3B3",
"S c #BCBCBC",
"D c #C3AF92",
"F c #C8B596",
"G c #C5B69E",
"H c #CFB899",
"J c #D5BE9E",
"K c #C7B8A1",
"L c #D5BFA0",
"P c #D7C09F",
"I c #D7C1A1",
"U c #D9C2A2",
"Y c #C5C5C5",
"T c #CCCCCC",
"R c #D3D3D3",
"E c #D8D8D8",
/* pixels */
"IIUUUUUUU IILLIUUULUUUUUUULULLUL.LPPUUUIIIIIIIUUUUUUIIK.IIIIIIII",
"IIUUUIggf.ddfIUUUUUUUUULUUUULfgf.sffPUIIIIIIIIIUUUUIgggXdggIIIII",
"PUUUIFGTYYTTKDIUUULLUUUUUUUUDKTTYTTABPIUIIIPIIIIIIUGGTTYTTGFIIII",
"znNVVVxAASAAcNVNmmnbllbbnmNVMcAAAAAcVVNMzMkkkzzmzNVvcAAAAAkCVNNm",
"30qyuhjvvvvvjhpyq02>==>20qyuhjvvvvvjhuyq92>-;>29yyuhjvvvvvjhuyq9",
"SSSYYTTTRRRTTTYYSSSASAASKYYYTTTRRRTTTYYYSSAAAAASYYYTTTRRRTTTTYSS",
"ASSYYTTRRERRTTTYSSSAAAAASYYYTTRREERTTYYSSAAAAASSYYYTRRRERRTTYYSS",
"SSSYYTTREERRTTYYSSSAAZASSSYYTTTEERRTTYYSSSAAAAASSYYTTRREETTTYYYS",
"SSSYYTTTRERRTTYYYSSAZAASSYYYTTRRERRTTYYSSSAAAAASSYYTTRRERRTTYYSS",
"SSSYYTTRRERRTTYYSSSAAAAASSYYTTRREERTTYYSSAAAAASSSYYTTRRERRTTYYSS",
"ASSYTTTREEERTYTYSSSAAAASSSYYYTRRERRTTYYSSSAAAAASSYYTRREERTTTYYYS",
"SSSYYTTRRERRRTYYSSSAAZASSSYYYRRRERRTTYYYSAAAAASSSYYTTRREERTTYYSS",
"ASSYYTTRRERRTTYYSSSAAZASSSYYTTREEERTTYYSSAAAAASSYYTTTRREETTTYSSS",
"SSSYYTTRRERRTTYYSSSAAAASSYYYYRRRERRTTYYSSSAAAAASSYYTTREERRTTTYYS",
"SSSYYTTREEERTTYYSSSAAAAASYYYYTRRERRTTYYYSSAAAAASSSYTTRRERRTTTYSS",
"SSSYYTTRRERRTTYYSSSAZAASSSYYTTRREERTYYYSSAAAAASSYYYTTREERRTTYYSS",
"ASYYYTTTREERTTYYSSSAAAASSSYYTTRRERRTTYYSSAAAAASSSYYTTRRERRTTYSSS",
"SSSYYTTRRERRTTYYSSSAAZAASYYYTTREERRTTYYSSSAAAAASSTYTTRRERRTTYYYS",
"ASSYYTTREERRTTYYYSSAZAASSSYYTTRRERRTTYYSSSAAAAASSYTTRRRERRTTTYSS",
"SSSYYTTRREETTTTYSSAAAAASSSYYTTRREERTTYYYSAAAAASSSYYYTRREERTTYYSS",
"SSSYYTTRREERTTYYSSSAAAAASSYYTTREERRTTYYSSSAAAASSSTTTTREERRTTYYSS",
"SSSYYTTREERRTTYYSSSAAAASSYYYTTTRERRTTYYSSAAAAAASSYYYTTRERRTTYYSS",
"ASYYYTTRRERRTTYYYSAAAAASSSYYTTTEEERTTYYSSAAAAASSSYYTRRRERRTTYYSS",
"SSSYYTTTREERTTYYSSSAAAAASSYYTTREERRTTYYYSSAAAAASSTTTTRRERRTTYYYS",
"ASSYYTTTEEERTTTYSSAAAAAASYYYTTRRERRTTYYSSAAAAAASSYYTTRRERRTTYSSS",
"SSSYYTTRREETTTYYYSSAAZASSSYYTTRRERRTTYYYSSAAAASSSYYTTRRERRTTYYYS",
"SSSYTTTTRERRTTYYSSSAAAASSSYYTTREERRTTYYSSAAAAASSSYYTRREERRTTTYSS",
"SSSYYTTREERRTTYYYSAAAAAASSYYTTTREERTTYYSSSAAAAASSYTTTTREERTTYYSS",
"ASSYYTTRRERRTTYYSSSAAAASSYYYTTRRERRTTYYSSAAAAASSYYTTTRRERRTTYYSS",
"SSSYYTTRREETTTYYSSSAAAASSSYTTTRRERRTTYYSSSAAAAASSYYTTREERRTTYYSS",
"ASSYYTTREEERTTTYYSSAZAAASSYYTTRREETTTYYYSAAAAAASSYYTTRRERRTTYYSS",
"SSSYYTTRRERRTTYYSSAAAAASSSYYYTREERRTTYYSSSAAAASSSYYTTREERRTTYYYS",
"ASSSYTTRRERRTTYYSSSAAAASSYYYTTRREERTTYYSSAAAAAASYYYTTREERRTTYYSS",
"SSYYYTTRRERRTTYYSSSAAAAASSYYTTRRERRTTYYYSSAAAASSSYYTTRRERRTTYYSS",
"SSYYYTTREEERTTYYSSSAZAASSSYYTTRREERTTYYSSAAAAASSSYYTTRRERRTTYYYS",
"ASSYYTTTRERRTTYYSSAAAAASSSYYTTRRERRTTYYSSSAAAAASSYYTTREEERTTYYSS",
"SSSYYTTRRERRRTYYYSSAAAAASYYYTTREERRTTYYSSAAAAASSYYYTTRRERTTTYYSS",
"ASSYYTTREERRTTYYSSSAAZASSSYYTTTRERRTTYYSSSAAAAASSYYTTREEERTTYYSS",
"ASYYYTTRRERRTTYYSSSAAAASSSYYTTRREERTTYYSSAAAAAASSYTTTRRERRTTYYYS",
"SSSYYTTREERRTTYYSSAAAAASSSYYTTRRERTTTYYYSSAAAASSSYYTTRRERRTTYYSS",
"SSSYYTTTRERRTTYYYSSAAZASSSYTTTRRERRTTYYSSAAAAASSYYYTTRRERRTTYYIS",
"ZZASSYYTTRTTYYSSAAZCCCCZAAASYYTTRTTYYSSAAZCCCCZZAASYYTTRTTYYSAAA",
"4900999999994099999999409990400099999999999999994999999999999999",
"                                ....                            ",
"Jp.+JJJJJJLJJJJJPIJJHHHJHJHLL<.....8PPIIPIPPPPPHJJHJJJJJJJJJLsXp",
"4222442444444444442444424544422222244244444444444444443224244422",
"6&..7886676w66886666887888887o.....@6888888868888866877777776; -",
"PpX+IIIIIIUUUIIIIJPIUUUUUUULL,XXXX.8IPIUUUUUUUUUUUUIIIIIIIIIIdXs",
"PaX@UUUUUUULUUULUJPPUUUUUUUUU<oXXoowPUUUUUUUUUUUUUUUUUUUUUUUUgOs",
"PaO@UUUUUULULLUUUPPPPPUUJUUPU<OOooo7UUUUUUUEUUUUUUUUUUUUUUUUUgOp",
"UaO@UUUUUUUUJUJUUUUPUUUUUPJPJ<O+OOowPPUUUPUUUUUUUUUUUUIIUUUUUdOp",
"UaO@UUUUUUUUJJUUUUUUUPJJJPPJJ,+#O++ePUUUPPUUUUUUUUUUUUIUUUUUIdOd",
"Ud#%IUUUUUUUUUUJUPPUUJUJPPPJJ1#####eUUUUPPPPUUUUUUUUUUUUUIUUUf#d",
"Ia#$UUUUUUUUUUUUUJPPUUJUPPJPH1++##$eUUUUPPUUUUUUUUUUUUUUIIUUUf#a",
"Is$%UUUUUUUUUUJUJUJJJJJJJJPPP1%%$$$ePUUUPPUUUUUUUUUUUUUUIUUUUf$d",
"Id%%UUUUUUUUUUUPUJUUJUJJJJPPP3%%=%%ePPUUPUUUUUUUUUUUUUUUUIUUUf$a",
"Ls=%UUEUUUUUUUUUJUUUUJJUUJLLJ3=====tLLUUUUUUUUUUUUUUUUJUUUUUPf%d",
"Us:*UUUUUUUUUUUUUUUUUUUUUJULJ2--===rUUULUUUUUUUUUUUUUUJPJUUUPg;a",
"Us,%UUUUUUUUUUUUUUJUUUUUUUUUL3>>>>=tUUUUUUUUUUUUUUUUUPJJJJUULf>s",
"Ld55UUUUUUUUUUUUJJUUUUUUUUUUU3>>>2>iUUUUUUUUUUPPUUUUUUUJJJJJLf,s",
"Ud2:UUUUUUUUUUUUJJJUUJUUUUUUU5222>2tJJUUUUUUUUUUUUJUUUUULLLULg2s",
"Ud2:UUUUUUUUUUUUUUUJJUUUUUUUU342222tUUUUUUUUUUUUUUJJULULLLUUUg2s",
"Ld5>UUUUUUUUUUUUUUUUUUUJUUUUU342445tUUUUUUUUUUUPUPUULUUUUUUULf4s",
"Us0,UUUUUUUUUUUUUUUUUJUJJUUUU400000iUUUUUUUUPUUPJJUUULLUUUUULf0d"
};
