/* XPM */
static char *result[] = {
/* columns rows colors chars-per-pixel */
"64 64 248 2 ",
"   c #030101",
".  c #0B0403",
"X  c #0B0807",
"o  c #0C0C0C",
"O  c #120504",
"+  c #190705",
"@  c #120A06",
"#  c #140B0A",
"$  c #190D0B",
"%  c #1A110D",
"&  c #130C11",
"*  c #131313",
"=  c #1D1413",
"-  c #1B1519",
";  c #1C1C1C",
":  c #280707",
">  c #320705",
",  c #29110C",
"<  c #38160D",
"1  c #231313",
"2  c #231816",
"3  c #241B1A",
"4  c #291C1B",
"5  c #351A15",
"6  c #2F221A",
"7  c #1F1F20",
"8  c #221E22",
"9  c #242424",
"0  c #2A2324",
"q  c #2B2B2B",
"w  c #342727",
"e  c #352D33",
"r  c #333333",
"t  c #3A3436",
"y  c #3B363B",
"u  c #3C3C3C",
"i  c #440E0C",
"p  c #4D1515",
"a  c #47241D",
"s  c #54291D",
"d  c #482924",
"f  c #552824",
"g  c #43332B",
"h  c #57332B",
"j  c #433B3C",
"k  c #5A3A35",
"l  c #6F2628",
"z  c #663935",
"x  c #733C33",
"c  c #5B4139",
"v  c #66433A",
"b  c #75473B",
"n  c #3C3941",
"m  c #443E42",
"M  c #5F3D40",
"N  c #434343",
"B  c #4A4349",
"V  c #4B4B4B",
"C  c #54444B",
"Z  c #514E51",
"A  c #535353",
"S  c #585357",
"D  c #5B5B5B",
"F  c #694844",
"G  c #764A46",
"H  c #7B4D44",
"J  c #6A514C",
"K  c #775247",
"L  c #7D524C",
"P  c #734F52",
"I  c #775655",
"U  c #7D5C54",
"Y  c #5F5B63",
"T  c #725E61",
"R  c #636363",
"E  c #6A6267",
"W  c #6B6B6B",
"Q  c #786768",
"!  c gray45",
"~  c #767579",
"^  c #7B7B7B",
"/  c #822A37",
"(  c #85453F",
")  c #8C3240",
"_  c #864D47",
"`  c #914D4A",
"'  c #83554C",
"]  c #89574C",
"[  c #92564D",
"{  c #855553",
"}  c #855D54",
"|  c #8B5C53",
" . c #8A5C5B",
".. c #945D56",
"X. c #AD5B56",
"o. c #85645C",
"O. c #8B635C",
"+. c #93655D",
"@. c #9A6758",
"#. c #9C645B",
"$. c #A2635A",
"%. c #A86A5D",
"&. c #B66F5F",
"*. c #895E61",
"=. c #915C64",
"-. c #A85D65",
";. c #876766",
":. c #956764",
">. c #956B63",
",. c #9C6C63",
"<. c #967266",
"1. c #9C746B",
"2. c #9C6E73",
"3. c #8B7475",
"4. c #957776",
"5. c #A66766",
"6. c #A36C62",
"7. c #AA6D62",
"8. c #B46667",
"9. c #A57265",
"0. c #AC7365",
"q. c #A5736B",
"w. c #AB756B",
"e. c #A37969",
"r. c #AC796B",
"t. c #B37565",
"y. c #B67966",
"u. c #B3756A",
"i. c #BA746A",
"p. c #B37A6C",
"a. c #BB7C6B",
"s. c #B86774",
"d. c #AB7473",
"f. c #A57A76",
"g. c #AC7B73",
"h. c #B77776",
"j. c #B47C74",
"k. c #BC7C71",
"l. c #C96B6D",
"z. c #C6776C",
"x. c #C37C72",
"c. c #C67C79",
"v. c #D57B79",
"b. c #9B807E",
"n. c #BC866E",
"m. c #AD8177",
"M. c #BB8276",
"N. c #B88679",
"B. c #BC847B",
"V. c #C3806F",
"C. c #C48374",
"Z. c #CB8375",
"A. c #CF8976",
"S. c #C2857B",
"D. c #CC847B",
"F. c #C48B7B",
"G. c #CD8B7C",
"H. c #D3867A",
"J. c #D38C7D",
"K. c #CC927E",
"L. c #D5927F",
"P. c #937F87",
"I. c #DB7E80",
"U. c #858485",
"Y. c #99939A",
"T. c #A68682",
"R. c #B98784",
"E. c #B09193",
"W. c #AB9BA0",
"Q. c #AFA1AC",
"!. c #B7A8B4",
"~. c #BBB3B8",
"^. c #C58A85",
"/. c #CB8C84",
"(. c #D48D82",
"). c #D78B86",
"_. c #D98D83",
"`. c #CD9285",
"'. c #C5928B",
"]. c #CC948C",
"[. c #CA9889",
"{. c #D49383",
"}. c #DB9485",
"|. c #D79986",
" X c #D4958B",
".X c #DC958A",
"XX c #D69A8C",
"oX c #DC9B8C",
"OX c #C89794",
"+X c #D59A92",
"@X c #D59A97",
"#X c #DD9D93",
"$X c #E18E87",
"%X c #E49789",
"&X c #E2968C",
"*X c #E49B8D",
"=X c #E39D92",
"-X c #E79D94",
";X c #DCA28E",
":X c #DDA394",
">X c #DDA39B",
",X c #D8A89C",
"<X c #E4A394",
"1X c #EBA295",
"2X c #EBAC97",
"3X c #E4A39A",
"4X c #EBA49A",
"5X c #E6AA99",
"6X c #EBAB9C",
"7X c #F1A89C",
"8X c #C9ABAD",
"9X c #C4B6BE",
"0X c #E5A9A3",
"qX c #EBABA1",
"wX c #F3AEA5",
"eX c #EAB1A5",
"rX c #F5B5A8",
"tX c #F2B9B1",
"yX c #F7C1BD",
"uX c #C9BBC5",
"iX c #CBC0C8",
"pX c #D4C4CB",
"aX c #DAC4CB",
"sX c #DACBD7",
"dX c #DDD1DC",
"fX c #E4CED4",
"gX c #E6D8DD",
"hX c #DED4E2",
"jX c #E7D8E5",
"kX c #E4DAE5",
"lX c #E6DCEA",
"zX c #EADEEC",
"xX c #EEDEEC",
"cX c #E6E1EC",
"vX c #EBE2EE",
"bX c #F9E5E9",
"nX c #EEE4F2",
"mX c #EFEBF3",
"MX c #F1E6F3",
"NX c #F3EBF5",
"BX c #F9EDF7",
"VX c #F5EDF9",
"CX c #EFF0F4",
"ZX c #F4F0F6",
"AX c #F5F3FA",
"SX c #F7F7FA",
"DX c #FAF4FC",
"FX c #FCFBFE",
/* pixels */
"E A V u D V V A u ^ 7 o r 9 7 q * ; r * * Z y r D D ~ V S Y A n Z m A R N N A r D 9 7 q u * q * 9 7 * 9 N r u ; N N D N A A N A ",
"A A ~ R N N V R V r 9 u 7 q o q * ; V q * ; 9 #     3     # o .     u m A u r u ; Z 9 * ; 9 7 q 9 r 7 q 7 7 ; N ! q A V N q A A ",
"W D u D A A D D q u u ; X 9 r V * n e = @ . O = @   X       .         y D D D N u r ; 9 * 7 u ; * 9 9 9 r r 9 A V u r r r N r A ",
"W N u D V W N r N 9 q 9 u * ; 9 - X     @ .   % 3   # .     # 0         &   7 V q u y 9 9 * * q ; q 7 N q 9 V V 9 A u N V 9 W N ",
"A D W D D r u R u Z V A ; N y ; 3 = X   . X X $ @ 1 X O O $ @ + w         . o * 7 n n n q * 9 o o X 9 7 r o 9 A q A V R N ! V u ",
"u r u V ! V D N ; 9 V 9 ; u - @ $ . . & 2 @ . 6 # $ = 3 . 2   . . 2             X & * n n * ; q q u 7 N X 7 q * u D V u D r N N ",
"D V D W R u u u A ; * m 9 m . X X   X @ 1 .   X % # = =   $ X     $ @                 N 9 q o q o 9 ; u r * o u V r u V N u A D ",
"N q N u V W V 9 7 7 & y N O # X $ o @ $ @ . X % = % 2 g @ 4 @ X     %         o       o * n o - r 7 7 r ; r q A 7 ! 9 u V R D R ",
"R ! A u W W V A u D m ; * X   .       O 0 2 . .   @     . .   .       . .       .       X 8 X V ; 9 7 ; * u u q V N V r R V V W ",
"W D A W R A D N V W r j #           . = + 0 . # .     .   .   .   . . O . .             . & o e ; r u r o r * N 9 V u V N ! W N ",
"A W ! u V R D R r W R t #         X @ O .   .     X   .   . O + + 5 5 5 5 O     .         # * ; ; ; ; ; ; ; q N r 9 R A D D V ^ ",
"R u ^ A D A ^ N N V V u . .     . $ @ 6 w $     . O O O , 5 w k z h ] ] H f + .           . X ; * 9 9 ; 7 ; ; * 7 N q D r D W ^ ",
"V R A u r R A ~ N A 3 e @ . .   .   1 1 2 w 1 $ + < 5 a v L H @.| 0.a.k.7.@.b O         X . X y q 9 * * * 9 ; 9 R V N U.A D A W ",
"W u D W m V N N V A r N . . . .   O . O , a a s s z >.^.`. X/./.G.G.x.a.i.&.h.O           . X c ; * 9 r X * r D N A N N D N W A ",
"A N 7 D u N q D q A ; t O . . .   , < a b [ %.i.F.J.|.|.<X|.}.{.{.(.Z.i.&.<.+ d , .       X . t 7 7 X X 7 q 9 u N u A W N R q N ",
"u r V W D N t r N ! 9 j % . . . X d H _ y.a.F.J.J. X{.oX#XoXoX|.}.{.H.z.t.` ( b b           O 2 9 * 9 ; q q 9 q 9 W A R q 9 V V ",
"D V V R ; r A N V ! N N 2 . . $ 5 v ,.#.j.M.G.G.{.{.}.=X#XoX#X:X#X#XJ.H.Z.x.%.u.K :       . . + q 9 r r X * 7 V 9 u N N W A 7 D ",
"R * ; D * V W N t u A t 1 + X O k b %.0.u.a.A.{.|.}.|.|.<XoX*X<X#X*X%XJ.J.C.y.i.L < X .   . # 2 * V o X ; ; 9 o A W R V 9 u 7 D ",
"D A 9 q D r W ! V R u t 6 5 X . c L 9.%.0.k.A.(.J.J.}.oX<X<X*XoX{.|.}.{.J.Z.n.&.b h . .   X $ 2 q o 9 ; N q r R N R 9 A N N A R ",
"A R V u u ; A u u ! V 0 6 0   + v +.%.0.k.i.i.A.A.J.L.|.*X-X<XoX}.&X X{.}.J.a.a.0.L . X .   1 4 A N r r * * 9 q r 7 N u W A A q ",
"u R V W u A ! R R u 9 e g O   + v +.#.7.0.x.V.J.J.}.*X<X*X-X=X#XoX.X{.%XL.L.F.a.t.H 1 % X   0 0 7 V * 7 * q D 7 R r ^ 9 N ! R D ",
"u A ! R V N R A * r q q g     O F >.6.w.t.k.x.x.J. X*X#X X-X3X=X#X#X.X.X}.G.Z.C.p.6.5 O     8 1 r r o ; A u N r D u u N N q q V ",
"A W A ! V W ! u W V t r w @   + v } 6.%.u.C.J.(._.=X=X<X3X3X6X0X0X=X3X#X|.Z.Z.C.k.6.c       - @ u R o o o N u 9 u V u u N u D D ",
"W R W A r ! N D A N V ; w @   . c o. .w.M.S.G.Z. X4X(.qX4X4XeXyX0XOXR.} H @.B.M.c.t.+.  . X .   ; q q 7 u o 9 V ; A A W N A u R ",
"W q R V R u N r V A r u $ X     J o.F k k G f.R.D.-XZ.#X2X}.+Xm.L f d P L 2.] 6.w.w.:.+     .   r o ; N * * 7 ; ; 9 V A ! V 7 D ",
"R R A U.R R u 7 7 r * A 3 .     ;.F k d h 5 d F :.D.G.C.<Xx.N.1.f d { ^.].q...[ #.0.+.$     S.v.r q * q r ; 9 u A u r N W V D R ",
"V V W ! R D D r A A r ; o $     ;.c h  .N.`.R.x , b h.G.<XC.x [ { d 0 T _ '.M.0.w.t.5.1 . O b l ! c u q * r N r 9 q N u ! D D A ",
"^ U.! u D N N N N u V r 9 ,     3.C G >.z :     v h i {.4XJ.a.%.,.:.  < > ..M.j.0.%.,.< a s -Xv.T.u q q q r D ; R u D u A V W W ",
"A V ! R ! A 7 V u ^ V * T a 8 . b.F +.z 5 N.i g.j.` p {.<XG.5XC.8.d.^.d.i.t.%.t.`.%.0.h _ i.%Xl.OXr u 9 o V 9 9 N 7 D D D r A r ",
"D V ^ D W R D u R R D r v p k + 3.U ..] | @...7.j.f.x J..XC.[.R.j.%.B.`.i.K.|.G.Z.M.p.b %.:XrXc.E.; q ; r r D N u r ^ ; N D D U.",
"A W ! A ^ A R ! N A N r  .p h 5 4.O.[ N.%.] $.M. X,.' Z..X(. X#X+X+X>X>XqX|.<X{.oXC.a.b $.(.&X).! ; r * r r N u r u V D A N R u ",
"q D u A r R ^ R V A N N =.f z d b.<.m.`.XXF.F.`.^.{ { H..XD.Z.=XqX3X0X,X3X-X<X5XoXa.u.' +XD._.Z.; * r q ; D V q ; q r W R V q D ",
"* q W R V W A u r N c q E l F , T.1.0.F.Z.{.`.G.^._ G )..Xc.D._.*X1X4X6X4X1X1X=X`.p.%.@.,X-Xv.).e q 9 ; V 9 7 r ! u D D 9 R A q ",
"u ; u V A R D W V V 7 9 y x x g T.1.7.V.(..X{.}.s. ._ )..XD.H.).&X4X1X-X-XwX4X*XG.y.9.,.tX].7XP.r u q u ; V N r V R D ; u r 9 D ",
"9 u u W A 9 N V A A N q E C l 5 T.4.w.S..X.X}.G.D.' d.&X-X/.c.z.&XwXwX4XwXwX-X|.XXp.w.6.F.qX#X; r q N 9 * r * ; q ^ N r V N V D ",
"V N D q N A W r ! R V u B q _ h E.3.g.D.{.*X-X=X5.{ -.).wXc.).c.).$X&X7XrX7X-X_.XXr.p.r.:X@XOXN * m Z V 9 V u u q ; N V U.D 9 V ",
"V 7 9 ! 9 u D r V A u u u 9 z O.3.3.m.D._.&X-X{.` {  .c.c.(.l i._.$X&.$X4X7X&X_.{.%.r.9.3X@XI 9 u r N 7 X ; u V r W W ! D N u D ",
"r A N r q u W * V R N A 9 9 u { I 4.1.c.A.}.%XZ.$.h f d.5.h.^./.H.%X*X&.1X%X}.{.{.9.9.w.0X#XB ; q ; q X V 9 V r N ; R N D q V W ",
"D ; V D A W N A A ^ N u A N 9 ;.v 4.U w.C.A.$XD.h.=.G G d.P.T.I.^.].XX-XX.<XL.oX|.u.w.q.#X'.q ; u ; q r u A A u N r R D D D N D ",
"N q V ! u u R q A V r 9 9 N q  .G 4.>.O./.G.S.j.d.=.:.'.h.d.E.'.R.^.'.`.<XoXK.;X|.j.r.j.X m q 9 V 9 q q o 7 o u q 7 D V r V N A ",
"r V ^ N R q R V r r W N * q 9 P.F ;.f.+.0.M.<.O.*.*.f.^.^.I.].^.R.R.I.T.`.y.K.5X|.u.r.r.  m q N ; q 7 7 u u 9 V A A q u D u q A ",
"D u D V V u u r 7 W N r N u u q 9 ;.1.H #.N.1.K *.d.c.v.).I.l.l.8.8.:.d.K.K.`.;X|.y.g.#.  & q V V u q q r r r A N r V 9 D D N V ",
"V N N A W u u A r V W r q r N q 9 T O.' 9.m.m.f > p l / l ) s.s.-.8.).8.[.F.n.;X`.@.M.w.2 r ; t N N u 9 * V u N u W q W N R V ^ ",
"q R W W D V W W r q V ; r o 9 V 9 S } q.<.M.L.a._ ` X.l.I.I.I.s.z.v.J.%X|.K.e.eXF.N.#.q.3.r m y W u 9 9 r u r u u u r N A D 9 A ",
"r A R r A ! W 9 V N r ^ u 7 9 ; * 9 J ,.K b [.y.....u.c.c.(.c.S.C.}.}.H.|.;XF.,X..n.N.j.f.u u 8 q ; u D N u * 9 R D V q W R r r ",
"r u ^ u D A A ; r V r D W r r u & ; 9 I U ,.r.6...j.#.w.q.q.^.|.}.}.J.A.A.t.5XK.m...M.N.h.* 9 q q q u r q u r N r ; u R D q A N ",
"W N ! A A V q u V V r 9 9 9 q u r 7 9 I | K ' r.#.$.i.x.i.i.(.&X_.L.}.|.F.L.;X] _ ;X;XXXD.~ pXDX!.dXq N u 9 u N N V V N A R N V ",
"D A V N A R A N N r o 9 u 9 V * X 9 9 9 J O.L U 9.$.%.c.c.&X(.-XJ.%XL.L.t.;Xn.p.K.;X|.;XG.aXAXhX!.hXsXu r q 9 A 9 N 9 R D V V r ",
"^ D A W D r R D ! V V A V q r q   q r * q I K K ,.%.t.a.H.&X-X&X_./.|.A.&.;Xp.0.5X2XG.G.`.j.bXsXcXkXhXU.r ; Z 9 N y R W N ^ W ! ",
"r u A R R N V R u A u o ; 9 o 7 * N r * q V U U +.m.#.x.c.&X=X&X X[.`.N.N.%.y.|.6X5X4X<X;XZ.2.xXcXhXlXzXq ; 7 N r D N r W D W D ",
"R N U.R V A A D N V r r ; 9 u u o * o * * ; o.U U 1.1.g. X{.{.+X].OX[.r.] n.y.<XwX2X=X=XL.N.nXvXzXkXzXhXlXN N q V N r Z V ^ D ! ",
"A ! D W ^ D D V u V V ; r 7 q 7 9 9 r o X * ;.U U ;.<.f.R.`.^.'.'.E.m.b t.%.;XrXwXeX1X1XOXbXnXnXnXzXcXcXlX~.q * n V A u W N ! A ",
"u A A U.D N u ; N u ; * 9 * q 7 r n X 9 N u ;.U o.o.o.4.1.m.+.} +.o.b %.&.|.2X6X5X4X2XOXnXmXmXMXnXlXlXcXcXhXq n 9 n D r r N W R ",
"R R A ^ R A R N A N 9 ; D * r * 9 q   * X E :.o.o.K b J F P P K K H n.A.|.2X2X6XeX4XXXbXmXAXNXNXMXzXlXlXnXlXsXB u D D R W W R ! ",
"W D ! u N A A q u W V r N ; o q e q 9 y W.4.k :.o.U K G ' ] } | 6.`.;XoX5X<X5X5X4X+XDXNXmXZXmXmXNXVXnXnXlXkXlXsXdXZ A A ! R u N ",
"Y.V ! ! W q V W V u A N 9 o V r q 9 ; !.sXE.h +.} O. .9.M.K.{.|.:X;XoX2XeX5X7X1X[.xXNXvXmXmXmXmXnXnXnXcXnXlXlXAXAXhXlXU.V A W A ",
"! ^ W R N V V W r q * r u 9 V r q 9 Y.zXsX8Xd ,.,.} +.m.].#X0X-X<X;X#X#X<X4X>X8XbXkXgXsXmXNXCXmXmXmXVXAXnXVXNXDXvXmXcXlXVXE ~ A ",
"^ N N W D 9 N A D N V 7 V r r r 7 E sXmXjXuXT e.,. . .1./.@X3X0X#X|.XX3X<X8XFXNXDXZXkXdXsXZXmXCXmXZXZXZXmXDXDXnXcXnXMXnXhXlXQ.u ",
"W V D U.u R A A q V r ; q r * q q jXNXcXbXaX3.R.q.q. .{ d.@X+X=X#X>X>XqX,XFXSX~.FXFXBXzXfXiXmXCXAXZXZXmXFXDXnXzXnXnXkXlXnXnXzXhX",
"D W ! D N V V q A q u N q 9 o r gX9X!.iXsXfXM f.w.j.6.| } 6./.+X#X#X#X#X!.FXSXSXFXAXAXlXpX9XvXAXAXAXDXNXDXVXzXnXcXnXnXlXhXnXmXnX",
"A ! A A A u V V N r r 9 r u q CXzXpX~.W.VXxXM ..d.j.S.:.>.6.k.XX+X0XXXA.gXZXbXZXAXCXSXAXjXuXBXFXAXAXmXZXVXzXnXnXxXnXnXMXnXlXlXVX",
"D U.^ R W N N u V u u 9 * 7 9 CXAXkX9XuXkXFXP 0.w.M.^.j.7.d.].#X#X#X[.ZXbXZXFXFXFXSXFXAXMXuXuXVXSXDXNXNXnXMXnXzXzXMXVXVXnXnXvXhX",
"! D W A A A A r q V 9 q r 7 7 CXNXlXuXW.pXY.jX .P.R.F.G.p.h.^.>X#X#XfXSXFXFXFXFXFXSXAXNXZXgXuXuXNXzXNXNXMXMXlXxXMXVXVXVXVXVXVXnX",
"W R A W N N R q 7 V q N r 7 7 AXAXmXuXE.3.Q uXbXaX5 @X].h.^.`.-X@X`.FXFXFXFXFXFXFXAXDXFXjXuX~.9XFXvXVXNXnXlXzXVXVXVXMXnXnXcXlXdX"
};
