/* XPM */
static char *result[] = {
/* columns rows colors chars-per-pixel */
"64 64 242 2 ",
"   c #010101",
".  c #090604",
"X  c #0B0906",
"o  c #0B0B0B",
"O  c #170B07",
"+  c #130D09",
"@  c #14120D",
"#  c #1A120D",
"$  c #141413",
"%  c #191713",
"&  c #1B1A15",
"*  c #1C1C1C",
"=  c #28160C",
"-  c #221B15",
";  c #231E18",
":  c #351A10",
">  c #2C2016",
",  c #26221B",
"<  c #2B241B",
"1  c #372619",
"2  c #38311E",
"3  c #1E1C29",
"4  c #232323",
"5  c #292727",
"6  c #2C2924",
"7  c #2B2B2B",
"8  c #332A24",
"9  c #342E29",
"0  c #35312A",
"q  c #3A332B",
"w  c #312F36",
"e  c #343434",
"r  c #3A3634",
"t  c #3C3A35",
"y  c #3C3C3C",
"u  c #431B0E",
"i  c #472B19",
"p  c #54301A",
"a  c #683B1F",
"s  c #442F27",
"d  c #473627",
"f  c #593926",
"g  c #443C36",
"h  c #443C37",
"j  c #653926",
"k  c #27491B",
"l  c #3D482A",
"z  c #474339",
"x  c #4A443C",
"c  c #564D31",
"v  c #594739",
"b  c #65452B",
"n  c #794827",
"m  c #674932",
"M  c #744C32",
"N  c #6A5338",
"B  c #775A3B",
"V  c #251D55",
"C  c #35334B",
"Z  c #27235A",
"A  c #2F2C63",
"S  c #49364D",
"D  c #433963",
"F  c #3A414B",
"G  c #3A4C74",
"H  c #434343",
"J  c #4B4744",
"K  c #4C4C4C",
"L  c #544B44",
"P  c #514E4C",
"I  c #56534B",
"U  c #475154",
"Y  c #535353",
"T  c #595856",
"R  c #5A5956",
"E  c #5B5B5B",
"W  c #624D45",
"Q  c #66584B",
"!  c #755B47",
"~  c #635C58",
"^  c #446C42",
"/  c #5C6753",
"(  c #78654A",
")  c #64625D",
"_  c #686359",
"`  c #6E7155",
"'  c #57526E",
"]  c #695869",
"[  c #5D6567",
"{  c #636363",
"}  c #676666",
"|  c #686867",
" . c #6B6B6B",
".. c #746B64",
"X. c #756E6A",
"o. c #7A7269",
"O. c #7C736C",
"+. c #6A6C73",
"@. c #6D7274",
"#. c #737373",
"$. c #787675",
"%. c #797877",
"&. c #7B7B7B",
"*. c #8C5228",
"=. c #865636",
"-. c #A8453E",
";. c #926A39",
":. c #AE6D35",
">. c #875F47",
",. c #886748",
"<. c #986B42",
"1. c #84715F",
"2. c #92755A",
"3. c #A47649",
"4. c #BE7D43",
"5. c #A77A53",
"6. c #847769",
"7. c #847A73",
"8. c #877B76",
"9. c #A57C6C",
"0. c #308A53",
"q. c #489363",
"w. c #788A77",
"e. c #9C8D54",
"r. c #B58754",
"t. c #8B8378",
"y. c #968979",
"u. c #9C9074",
"i. c #B2936F",
"p. c #A98B72",
"a. c #AB9478",
"s. c #9FAD79",
"d. c #B6AB6F",
"f. c #C69152",
"g. c #C9AB54",
"h. c #CAB857",
"j. c #C59C6F",
"k. c #CCAF6F",
"l. c #E6B671",
"z. c #D3C254",
"x. c #E4D050",
"c. c #E5D153",
"v. c #E9D454",
"b. c #D8CA6A",
"n. c #D6C970",
"m. c #E4D46A",
"M. c #E2D07C",
"N. c #F1E17A",
"B. c #777B82",
"V. c #867E85",
"C. c #7A8488",
"Z. c #838282",
"A. c #8A8585",
"S. c #888889",
"D. c #8A8A8B",
"F. c #948A85",
"G. c #958D89",
"H. c #9C9488",
"J. c #8D8F93",
"K. c #959393",
"L. c #999494",
"P. c #9B9B99",
"I. c #AC8B84",
"U. c #A99684",
"Y. c #A2968B",
"T. c #A7998D",
"R. c #A99C8E",
"E. c #A79C95",
"W. c #AEA58C",
"Q. c #ABA497",
"!. c #ADA49B",
"~. c #B2A494",
"^. c #B7AA99",
"/. c #B5A99A",
"(. c #9F9EA3",
"). c #9BA3A6",
"_. c #93ABBA",
"`. c #ACA5A3",
"'. c #AAABA8",
"]. c #B5ADA3",
"[. c #B9AFA2",
"{. c #B3AEA8",
"}. c #BCB2A5",
"|. c #B7B1A9",
" X c #BAB5AA",
".X c #BCB5AB",
"XX c #B5B5B3",
"oX c #BBBAB4",
"OX c #B9B8B6",
"+X c #C7B58F",
"@X c #C8B397",
"#X c #C4B29C",
"$X c #E3BE8C",
"%X c #C4B5A4",
"&X c #CABCA6",
"*X c #C2B6AB",
"=X c #C4B8AD",
"-X c #C5BCB2",
";X c #C8BEB3",
":X c #C5BBBA",
">X c #BEC2BA",
",X c #DBCA9B",
"<X c #E7D48E",
"1X c #F3E78D",
"2X c #F2E595",
"3X c #D5C2AA",
"4X c #CAC1B6",
"5X c #C5C3BC",
"6X c #CCC5B9",
"7X c #CFC8BC",
"8X c #D3C7B9",
"9X c #D2C9BD",
"0X c #DCD1BE",
"qX c #E0CFB5",
"wX c #E4D3B7",
"eX c #C8BCC3",
"rX c #BAC4C9",
"tX c #C7C8C3",
"yX c #D3CDC3",
"uX c #D0CEC8",
"iX c #D5D0C7",
"pX c #DCD3C7",
"aX c #D7D2CA",
"sX c #DAD5CC",
"dX c #DCDAD3",
"fX c #D4D8D8",
"gX c #E6D9C7",
"hX c #E3D9CE",
"jX c #E4DDD3",
"kX c #E3DBDC",
"lX c #F4EBCF",
"zX c #E9E1D5",
"xX c #E5E2DA",
"cX c #EBE5DB",
"vX c #EEE8DF",
"bX c #D5DDE4",
"nX c #DDE6E7",
"mX c #EFEAE1",
"MX c #EDEBE8",
"NX c #F1EDE4",
"BX c #F0ECE8",
"VX c #F4F0E8",
/* pixels */
"| P K y E Y K Y y &.4 X r 4 4 7 $ * 7 % $ P y w T E %.K T E %.E Y z Y | C J Y e R 4 4 7 t $ 6 $ 5 , o 4 H w l * H H R J T I H Y ",
"Y T $.[ H H K   X + # + f $ . # - % # ; b L & = % b u.@ b # , a.X   m $ c ,.@ @ # % p.X ; b < i $ d & j $ f s $ ! < m J C 7 P R ",
"X.R y E Y       . 1 . X @ @ & 8 $ 1 o % p $ b X # q   @ B o [ v o   5.$ Y b X $ M % < @ % ; % h + * ( 5 ,.@ ( x X ( Y _ H H e Y ",
" .J C E P     u # $ b - s % p.1 % # e e.d @ f [ S.@ d + 1  .2.& q w 1.C.N & 2 _.6.7 %X6 * C 1 Q L d ; 8.! H.(.(./.r >., 6 7 | H ",
"T T  .E $ + # = 0 f o * @ :.& # d & p % * i : <.% 4 U 1 % 3.% @.w o.! u.C rXe ( m 5.7 ; 1 : i 1 9 1 p v 6 d : 9.x <.N 3.B @.K y ",
"y e t U X.Y / S [ B.D.P.).XX>X>X.X5X-XeX4X7X6X>X X..I |.x Y.T.OXMXbX@X7.t.VXVXcXjXdXhXsXjXhXhXpXhXsXsXaXaXaXuX).8.J P y Y r H H ",
"E U E | [ y y y T Y  .B.K.Q.|.|.4XsXdXaXsXaXaXaXaXsXaXsXaXsXhXjXkXjXsXcXcXxXcXcXcXxXmXmXjXmXcXjXNXcXcXsXfXaXD.h P e C J z C U ~ ",
"y 7 J y K | Y 4 4 4 / | %.A.P.|.|.aXsXdXjXdXjXaXdXhXsXdXjXjXhXjXjXjXmXxXmXmXcXcXzXmXNXBXjXBXmXNXNXcXcXcXxXX.r T 4 #.5 l K } E { ",
"{ #.Y r }  .K Y e [ H e } $.S.'.XX-XaXsXsXdXjXdXsXdXsXaXsX8X7.p.F.a.T.U.U.R.U.zXMXcXmXNXcXmXmXmXmXvXvXVX$.K e w K S P y [ K K  .",
"} { Y #.} Y E H J | e e o | #.S.|.OXaXaXpXaXdXaXsXdXjXdXy.t.U.U.R.R.R.!.~.R.~./.cXvXNXNXmXNXmXcXvXNXVXV.R w & H 4 K r K y #.@.H ",
"Y  .@.y P [ Y { r  .[ 4 & E [ %.K.XXXXdXaXaXsXaXjXdXjXaXT.a.W.~.W.R./././.^.^.[.pXNXvXNXcXcXcXcXNXVXH.T * & 5 H e 4 / Y E E K &.",
") C &.Y E Y w.H H K K h . $ [  .$.`.XX|.sXsXaXaXsXaXaXaXY./.^.~././././././.}.=X6XvXcXcXcXmXNXVXVX6XT * 4 * * $ ; H 7 [ e E  .$.",
"K } T y e { T %.J U 4 4 o 3 * R | w.).{.aXaXaXaXaXaXsXaX/././.^./.^.^.[./.[./.%X7XcXvXcXcXmXNXcXMX) $ $ $ 5 * * [ Y H B.Y E T } ",
" .t E | H J H H J Y 7 H y $ o & }  .Z.'.{.aXaXaXaXaXaXaX X/./.^./.^.^.^.%X].}.*XyXcXNXNXVXmXvXvX&.& 4 w X $ e [ S Y H K E H @.Y ",
"U K 4 Y C J 7 E 7 T * o & 3 4 X . } #.P.'.aXaXaXaXiXaXuX.X/.#X^.].[.[.%X#X@X*X;XhXNXvXmXmXNXmXyXE 4 . X * 7 4 t l C Y | H { 5 H ",
"h e K  .E H e e H #.4 7 H $ K 4 $ }  .C.'.;XaXpXaXaXuX;X|.Q.}.^.[./.%X%X^. X*X=XcXNXNXmXVXmXVXX.4 $ 4 * 7 6 5 7 4 #.Y { 7 4 P J ",
"E K J { * e Y S K #.H 4 $ o 3 * , 4 | o.K.|.iX7X7X X|. XoX)./. X[.}.%X*X[.*X*X;XcXvXMXVXvXmXyX@.7 4 w e . $ 4 K 4 C C H  .T * E ",
"{ $ * / $ K  .H y y Y 7 7 7 & X X r | | S.'.|.|.|.|.|.XX4X.X|.#X X*X*X=X%X^.;X;XcXVXmXVXVXcXD.P $ K o X * * 4 o Y | { K 7 y 3 E ",
"E U 5 0 R w @.X.K / l e K 7 5 5 $ w Q } #.'.|.>X|.|.>X>X5XaXrX}.#X.X%X%X=X=X;X6XVXVXVXVXVXNXQ e 5 o 4 * H 7 y E z { 4 Y H H Y ) ",
"Y { J C H 3 U l S +.U $ e 3 7 4 $ o ( x P *. X{.a Q.% 4Xk.aXaX}.[.f.g x .Xj.;XhXVX5.i m 3.zX3.* T H e e $ $ 4 7 e 4 H l  .E P 7 ",
"y { J  .y Y #.} [ y 4 w 4 & * e $ 4 J x d *.iX[.5._ > *Xk.yXhX%X%Xj.) Q [.@X;XcXVXj.2.d.wX!.4 4 * K $ * $ 7 E * { e $.6 H +.{ E ",
"y Y #.| J H | U $ e 7 $ $ C l & o y & E } S..X}..X;X6XyXiXaXaX[.#X^.#X X@X#X;XcXVXVXgXhXdXD.5 5 e e $ * T y H r [ y r H l w w K ",
"Y  .R #.J  .#.y  .K r 4 3 * y 4 o r X ~ { w.).%X*XtX:X8XyXyXaX#X[.VXbXXX-X@X6XcXVXvX9XpXcX .* 7 y [ o o o C y 4 y K C h J C T E ",
" .}  .U w $.H E T H K * & e * 4 o 4 4 ! ) 1.a././.- t.o.f.sXsX^.^.d.x.N v.6X6XNXNXg.9XcXxX;.* K $ w 5 * l o 5 U * Y Y +.l Y y } ",
" .7 { P } y K 7 J Y e C 7 y * F o * * ) q ..p.#X#X& 6X..r.pXaX^.^.e.x.p x.^.%XVXNXl.4X0XxXi.* 7 e $ * H $ $ 4 * * 4 P T @.K 4 T ",
"{ { K D./ } y 3 4 e $ I y X * 4 w 4 * { _ %.G.[.;X7XyX7XyXiXsX}.=Xe.z.b.m.[.4XVXVX3XyXsXpX$.4 4 w 7 $ 7 w * 4 y U y e x } P E { ",
"K Y  .@.| R E e Y Y t * X e 4 & * o e T { %.K.].*XH. X6XyXyXaX%X:X4XtX4X7X6X*XVXNXtXaX!.pX..0 4 / K H 4 $ 7 H e 5 7 z C @./ E Y ",
"%.Z.@.y ) C H H C l P 7 7 & 5 U $ X $ 7.~ 6.A./. Xb.h.n.M.iXaX|.fXiXdXyX7X7X4XVXMX<X;.N.iXP $ 7 3 y 7 7 4 y E & { y E y Y K  . .",
"Y K #. . .T 4 J H V.J $ U * 4 . 4 7 K $ ) $.t.T. Xk.c.( n.aXaX*X.X=X=X.X=X=X=XVXvX2Xv.2XiXz 3 $ & w l 4 o K 5 4 H 3 E E E e Y w ",
"E K B.E  .{ E y ) [ T e * y Y @ o e 5 e ~ 7.A.{.|.s.h.g.h.iXiX*X=X=X=X=X=XeX=XVXjX8X9X9XaXC $ l 4 * 5 3 e e E H e y &.* S / ~ C.",
"Y  .#.Y &.T { @.H Y J e 4 e 5 S 7 7 * H w w 3 E.|..X=X*XOX-XaX.X=X=XoX*X=X-X4XVXVXgXU.a.yXy o 7 C $ 7 $ w e J y e y K / Y H { C ",
"7 E y P e { $.{ P U H H H 4 * K w e 7   w d C 1.|.U A 4.f.V 9X-XdXfXtXoXH.t.I.zXNXcX~.-.7.. * $ ; $ y 7 * E K 5 * 7 e } } J 7 ) ",
"$ e X.) K +.Y l w H H 5 [ $ * y $ 4 w 4 3 5 h d [.A S i.V V |.*X:X_ t.O.L I P.0Xt.;X[.=Xt.y 4 5 7 5 5 * K 5 4 7 #.H E E 4 } T 7 ",
"y * r P Y { E  .J K 4 4 y . * y $ * h 4 X.O.F.H./.V Z A Z Z T.;X=X-X=X&XoX;X4XVXVXVXcX2.S.y y w e y 7 r * J H e K [ ) $ e e 7 Y ",
"4 e C | T 3 H K Y Y H 7 { e J 4 y e + $ K 3 3 F.~.V.L.E.*X4X X;X=X=XMXNX4X*X8XVXt.4XyXy.F.7 4 * e 5 H 7 $ e $ * 7 w.C e K K K E ",
"K H E 7 H Y  .e @. .K y J 7 C l y y 4 3 J q ! G.~.V V r.r.D |.6X&Xc.c I w.x.4XVXR.1X1Xa.H.e 7 J $ H U K 4 U e H 7 & J Y S.Y 7 H ",
"K * 5 @.4 e E w K Y y y e 4 e e y e 7 C $ e r X.}.Z ] ] Z ' *X4Xu.l w.^ / k %XNXy.1X1X/.K.* $ 5 y e H 4 . * y K e }  .#.E H r E ",
"e T H e w y  .& K [ J P 7 4 e 6 * * % % y  .8.+./.' ' A A A *X4X}.n.x.x.x.&X4XVX*XlXmX%X7 e 4 * 5 * 7 . K 4 K e J 3 { H E 5 K +.",
"E * K E K  .K Y T B.H r T C 7 H y & o * y ( ,.8.|. XL.]. X5XaX4X*X*XnXVX6X=X=XVXgXL l 4XT.7 7 * y * 7 e e Y Y y H e ~ E [ E H E ",
"H 7 K @.y y { 7 K K e 7 3 l w 5 . * 7 $ 4 ` b 8./. Xn.z.m.k.aX4X3Xc.l c ` v.*XVX`.I J z w.* 7 4 K 4 7 w o 4 o y 5 * [ J 7 K J Y ",
"e K &.H } w E K e e  .H $ 7 4 y y 7 $ w 7 _ ;.,.].|.b.h.d.n.aX>Xn.` w./ / l [.W./.7.t.9XP * 7 H & 7 & 4 l y 4 K T Y 7 e / y 7 P ",
"/ y Y K K y y e *  .J w H y y 5 5 $ 5 e U %.7.y.!.4X^.n.n.n.aX6XXX@Xc.c.m.*X XVXVXVXvX}.* 4 7 K K y 7 7 w e e Y H e U 4 E [ K P ",
"K H H Y @.r y Y e K | 7 7 7 K 7 4 o 4 $ e Q L t.L.8X4X6X5XrX9X5X%X%X.X*X>X XoXmXwXVXmX%X7 4 $ e K C y 4 $ U y H H } w | C { K #.",
"5 |  .+.E J @. .t 7 U * e @ 4 K 4 $ K * K x ..` P.!.T u.t.x  .rXdXiX-X].W.H. XaX4X].E./.3 e H r  .y 3 5 e y e y r y e H R E 4 Y ",
"w Y } r Y #. .4 K l C &.y 4 4 * $ 4 X H e e O.J t.*XL R ` Q ...Xt.0.0.0.q.q.oX7XzXcXsXP X y e * 7 * l E y H $ 4  .E J 7 X.{ w y ",
"e l $.C E Y Y * w K e E  .e e y @ & 3 7 r 7 X.F.H.H.aXaXkXsXzXdX/.>X X[. X%XNXVXzXcXdXr o $ 4 7 0 7 C 7 7 y w H w & y [ / 7 Y C ",
" .H #.Y Y J 5 H K K 7 4 4 4 7 y w * 4 K o 7 y 7.E. XaXsXaXaXhXdXvXVXNXxXhXmXxXNXcXcX&.$ 4 * * J 4 H 7 z y * r H J K K H U { H P ",
"E Y K H Y [ Y H H e $ 5 y 4 K $ . 5 5 4 w e 4 { { F.W.#X9XiXiXQ.nXnXdXwXqX6XNXsXaXE.6 @ e * * &.w y 7 y w 7 * K 4 H 5 { ~ K K 0 ",
"B.E T  .E e { E $.K U T J 5 e 7 . 5 t $ 4 y y E , m n *.b < :.f e.'.a.B r.i p ;.m g r 7 4 / 4 9 7 * * o e * K 3 J e { +.H 8.| @.",
"r y Y E [ H J | r Y e $ * 4 o 4 o S e $ 7 y , d l 5.d > ;.i p =.I {.Q 3.M *.<XN r.s J , E 7 & C 4 o $ $ 4 & 3 l y Y l e +.E @.E ",
"| H S.| K P R E H Y w e * 4 y y $ $ o $ @ 1 < & . p 3.# n = , a H N 2.! b ;.r.# : # 1 - 4 7 r E e $ 7 4 4 H H 5 K C e Y H &.T #.",
"Y @.E  .&.E E K y K H * w 4 5 4 4 4 - ; * & @ d @ < = + @ % @ @ O = a @ i = a < j , :.% ,.q v e e * 4 w e * 4 & y K R e  .H #.P ",
"y K Y Z.E J y 3 J C * $ 4 $ 4 4 r h g @ c % % % f % & = & <.@ @ = & >.O & :.% N % 8 *.q # ; 8 % $ 5 H 4 4 * 5 C 4 C Y y e S | | ",
"{ | Y &.[ P E J T H 4 * E $ e $ t z 6 < & , 6 ,.1 # b $ - j @ # i o W n o - # l u X r R.W j.E ! d ) w 7 X 4 7 . z T T /  . ./ @.",
" .E @.y H Y T 7 t } P K e 8.t.J.L.S.| M i <.% - ; - & F b 6 o % N 6 m & p G > e i.8 3.Y c j.u.r.-X:XOX`.`.P.K.5 5 w Y T #.{ C x ",
"P.J #.#. .w H {   9 A.8.o.$.$.+.) J h e H.U.6.H.Y.+Xl.=X;.i.&X;.d r.0Xf.vXlX,XNXNXwXMXVXVXNXNXVXVXtXOXOXXX{.!.E.G.8. .@.P Y  .Y ",
"%.B.| | H         X.V.#.| ~ I J r e 7 4 6 y.F.T.~./.}.@X4X6X6XhXzXcXVXVXVXVXVXVXVXVXVXVXVXVXVXVXVXVXtX).|.].`.T.P.K.F.7.{ ) #.Y ",
"&.H y { E &         @ +.| ~ W s g 5 q < ) < R.y.~./.^.=X6X9XgXjXcXcXVXVXVXVXVXVXVXVXVXVXVXVXVXVXVXVXjXG.F.L.S.S.J.K.L.S.H C w l ",
" .K E S.y { ; q             6 t e 9 g J q h v q 3XjXjX7.p.U.U.].hXhX8XVXcXjXhX0X$XjXcXzXcXjXcX=X9._ 7.~ | +.&.C.D.J.Z.%.E { { K ",
"E  .#.E K J @.& 8 q L R X     $ J h z h y y e t l v v !.y.y.H.~.{.'.Q.Q.7X].W.o.,.L h h h x J T R R [  .#.B.B.~ OXOXK.K H { E w ",
"U $.Y P T y K J y - 9 h L R ~ ....o.I g P T x J [ F.L 2.! >.s >.m U.! p.W.}.%X4XE T T T T T / %.t.$.H. XXX.XOX|.Q.S.J C Y E S e ",
"~ S.&.[  .H y y K r y y 0 h L I ~ } ..6.o.7.P                                         $.OX.X X|.|.|.`.(.Q.Q.L.7 w e e Y P B.Y #.",
"$.E  .Y E K Y e 7 K 4 7 e ; + H $ w #...o.7.8.7.V.V.8.8                         @ E.`.{.E.{.Q.`.L.~ & 5 * * 7 H e K K 4 | l Y H ",
" .| K #.y J { 7 4 K 7 H e 3 $ * & 4 X 7 * 5 & y S | K l y &.{ ~ t S ] #.R | #. .w 5 * y % * 4 S $ w 7 4 . 4 w & @ * 7 H E Y Y Y "
};
